<?xml version="1.0" encoding="UTF-8"?> <!-- Generator: Adobe Illustrator 25.3.1, SVG Export Plug-In . SVG Version: 6.00 Build 0) --> <svg xmlns="http://www.w3.org/2000/svg" xmlns:xlink="http://www.w3.org/1999/xlink" version="1.1" id="Layer_1" x="0px" y="0px" viewBox="0 0 138.9 138.9" style="enable-background:new 0 0 138.9 138.9;" xml:space="preserve"> <style type="text/css"> .st0{fill:#FFFFFF;} .st1{fill:#FFB700;} </style> <g> <path class="st0" d="M64.6,129.1c-30.1,0-54.6-24.5-54.6-54.6C10,44.5,34.5,20,64.6,20c13.2,0,25.3,4.3,34.3,12.1 c0.6,0.5,0.7,1.5,0.1,2.1c-0.5,0.6-1.5,0.7-2.1,0.1C88.5,27,77,23,64.6,23C36.1,23,13,46.1,13,74.5c0,28.4,23.1,51.6,51.6,51.6 c28.4,0,51.6-23.1,51.6-51.6c0-13.1-3.8-23.9-11.7-32.7c-0.5-0.6-0.5-1.6,0.1-2.1c0.6-0.6,1.6-0.5,2.1,0.1 c8.4,9.5,12.5,20.8,12.5,34.7C119.2,104.6,94.7,129.1,64.6,129.1z"></path> <path class="st0" d="M64.6,106.1C47.2,106.1,33,92,33,74.5C33,57.1,47.2,43,64.6,43c6.9,0,13.6,2.1,17.9,5.6 c0.6,0.5,0.7,1.5,0.2,2.1c-0.5,0.6-1.5,0.7-2.1,0.2c-3.8-3.1-9.8-4.9-16.1-4.9C48.8,46,36,58.8,36,74.5c0,15.8,12.8,28.6,28.6,28.6 c15.8,0,28.6-12.8,28.6-28.6c0-6.1-2.3-13.6-5-16.2c-0.6-0.6-0.6-1.5,0-2.1c0.6-0.6,1.5-0.6,2.1,0c3.7,3.6,5.9,12.1,5.9,18.3 C96.2,92,82,106.1,64.6,106.1z"></path> <path class="st0" d="M110.8,29.1c-0.8,0-1.5-0.7-1.5-1.5V17.1c0-0.8,0.7-1.5,1.5-1.5s1.5,0.7,1.5,1.5v10.5 C112.3,28.4,111.7,29.1,110.8,29.1z"></path> <path class="st0" d="M105.5,34.1c-0.8,0-1.5-0.7-1.5-1.5V22.1c0-0.8,0.7-1.5,1.5-1.5s1.5,0.7,1.5,1.5v10.5 C107,33.4,106.3,34.1,105.5,34.1z"></path> <path class="st0" d="M116.3,23.8c-0.8,0-1.5-0.7-1.5-1.5V11.8c0-0.8,0.7-1.5,1.5-1.5s1.5,0.7,1.5,1.5v10.5 C117.8,23.2,117.1,23.8,116.3,23.8z"></path> <path class="st0" d="M121.4,29.1h-10.5c-0.8,0-1.5-0.7-1.5-1.5s0.7-1.5,1.5-1.5h10.5c0.8,0,1.5,0.7,1.5,1.5S122.2,29.1,121.4,29.1z "></path> <path class="st0" d="M116.4,34.5h-10.5c-0.8,0-1.5-0.7-1.5-1.5s0.7-1.5,1.5-1.5h10.5c0.8,0,1.5,0.7,1.5,1.5S117.2,34.5,116.4,34.5z "></path> <path class="st0" d="M126.6,23.7h-10.5c-0.8,0-1.5-0.7-1.5-1.5s0.7-1.5,1.5-1.5h10.5c0.8,0,1.5,0.7,1.5,1.5S127.4,23.7,126.6,23.7z "></path> <path class="st0" d="M64.6,86c-6.3,0-11.5-5.2-11.5-11.5c0-6.3,5.2-11.5,11.5-11.5l0.5,0c0.4,0,0.8,0.2,1.1,0.5 c0.3,0.3,0.4,0.7,0.4,1.1l-0.3,6l48.9-49.4c0.6-0.6,1.5-0.6,2.1,0c0.6,0.6,0.6,1.5,0,2.1L65.7,75.6c-0.4,0.4-1.1,0.6-1.7,0.3 c-0.6-0.2-0.9-0.8-0.9-1.4l0.4-8.3c-4.2,0.5-7.4,4.1-7.4,8.4c0,4.7,3.8,8.5,8.5,8.5c4.7,0,8.5-3.8,8.5-8.5c0-0.8,0.7-1.5,1.5-1.5 s1.5,0.7,1.5,1.5C76.1,80.9,70.9,86,64.6,86z"></path> <path class="st1" d="M17.5,74.5c0,26,21.1,47.1,47.1,47.1c22.5,0,41.4-15.9,46-37.1H99.3c-4.3,15.1-18.2,26.1-34.7,26.1 c-19.9,0-36.1-16.2-36.1-36.1c0-19.9,16.2-36.1,36.1-36.1v-11C38.6,27.5,17.5,48.6,17.5,74.5z"></path> </g> </svg> 