<?xml version="1.0" encoding="UTF-8"?> <!-- Generator: Adobe Illustrator 25.3.1, SVG Export Plug-In . SVG Version: 6.00 Build 0) --> <svg xmlns="http://www.w3.org/2000/svg" xmlns:xlink="http://www.w3.org/1999/xlink" version="1.1" id="Layer_1" x="0px" y="0px" viewBox="0 0 138.9 138.9" style="enable-background:new 0 0 138.9 138.9;" xml:space="preserve"> <style type="text/css"> .st0{fill:#FFFFFF;} .st1{fill:#2ECC71;} .st2{fill:#FFB700;} </style> <g> <path class="st0" d="M75.6,16.7c-0.8,0-1.5-0.7-1.5-1.5v-0.4c0-2.8-2.3-5-5-5s-5,2.3-5,5v0.4c0,0.8-0.7,1.5-1.5,1.5 S61,16.1,61,15.2v-0.4c0-4.4,3.6-8,8-8s8,3.6,8,8v0.4C77.1,16.1,76.4,16.7,75.6,16.7z"></path> <path class="st0" d="M80.1,34.7c-1.9,0-3.6-1.4-3.8-3.4l0-0.3c-0.4-3.3-3.3-5.9-6.7-5.9s-6.2,2.5-6.7,5.9l0,0.3 c-0.2,1.9-1.9,3.4-3.8,3.4h-0.9c-2.1,0-3.9-1.7-3.9-3.9V17.1c0-1.8,1.5-3.3,3.3-3.3h23.1c1.8,0,3.3,1.5,3.3,3.3v13.8 C83.9,32.9,82.2,34.7,80.1,34.7z M69.5,22.2c4.9,0,9,3.6,9.7,8.5l0,0.3c0.1,0.4,0.4,0.7,0.8,0.7c0.5,0,0.9-0.4,0.9-0.9V17.1 c0-0.2-0.1-0.3-0.3-0.3H57.5c-0.2,0-0.3,0.1-0.3,0.3v13.8c0,0.5,0.4,0.9,0.9,0.9H59c0.4,0,0.8-0.3,0.8-0.7l0-0.3 C60.5,25.8,64.7,22.2,69.5,22.2z"></path> <path class="st0" d="M103.1,132.7H35c-4.3,0-7.9-3.5-7.9-7.9V27.1c0-4.3,3.5-7.9,7.9-7.9h20.2c0.8,0,1.5,0.7,1.5,1.5 s-0.7,1.5-1.5,1.5H35c-2.7,0-4.9,2.2-4.9,4.9v97.7c0,2.7,2.2,4.9,4.9,4.9h68.1c2.7,0,4.9-2.2,4.9-4.9V27.1c0-2.7-2.2-4.9-4.9-4.9 H82.4c-0.8,0-1.5-0.7-1.5-1.5s0.7-1.5,1.5-1.5h20.7c4.3,0,7.9,3.5,7.9,7.9v97.7C111,129.1,107.5,132.7,103.1,132.7z"></path> <path class="st0" d="M86.1,123.2h-48c-0.8,0-1.5-0.7-1.5-1.5V30.2c0-0.8,0.7-1.5,1.5-1.5H48c0.8,0,1.5,0.7,1.5,1.5 s-0.7,1.5-1.5,1.5h-8.4v88.5h45.9l13.1-13.1V31.7h-8.4c-0.8,0-1.5-0.7-1.5-1.5s0.7-1.5,1.5-1.5h9.9c0.8,0,1.5,0.7,1.5,1.5v77.5 c0,0.4-0.2,0.8-0.4,1.1l-14,14C86.8,123.1,86.5,123.2,86.1,123.2z"></path> <path class="st0" d="M54.3,78.6c-0.4,0-0.8-0.2-1.1-0.4l-3.6-3.6c-0.6-0.6-0.6-1.5,0-2.1s1.5-0.6,2.1,0l2.5,2.5l6.4-6.8 c0.6-0.6,1.5-0.6,2.1-0.1c0.6,0.6,0.6,1.5,0.1,2.1l-7.5,7.9C55.2,78.4,54.8,78.6,54.3,78.6C54.4,78.6,54.4,78.6,54.3,78.6z"></path> <path class="st0" d="M51.1,56.5c-0.4,0-0.8-0.1-1.1-0.4c-0.6-0.6-0.6-1.5,0-2.1L59,45c0.6-0.6,1.5-0.6,2.1,0s0.6,1.5,0,2.1 l-8.9,8.9C51.9,56.4,51.5,56.5,51.1,56.5z"></path> <path class="st0" d="M60,56.5c-0.4,0-0.8-0.1-1.1-0.4L50,47.2c-0.6-0.6-0.6-1.5,0-2.1s1.5-0.6,2.1,0l8.9,8.9c0.6,0.6,0.6,1.5,0,2.1 C60.8,56.4,60.4,56.5,60,56.5z"></path> <path class="st0" d="M51.1,102.5c-0.4,0-0.8-0.1-1.1-0.4c-0.6-0.6-0.6-1.5,0-2.1L59,91c0.6-0.6,1.5-0.6,2.1,0s0.6,1.5,0,2.1 l-8.9,8.9C51.9,102.4,51.5,102.5,51.1,102.5z"></path> <path class="st0" d="M60,102.5c-0.4,0-0.8-0.1-1.1-0.4L50,93.2c-0.6-0.6-0.6-1.5,0-2.1c0.6-0.6,1.5-0.6,2.1,0l8.9,8.9 c0.6,0.6,0.6,1.5,0,2.1C60.8,102.4,60.4,102.5,60,102.5z"></path> <g> <path class="st1" d="M92.2,57H66.4c-1.1,0-2-0.9-2-2s0.9-2,2-2h25.8c1.1,0,2,0.9,2,2S93.3,57,92.2,57z"></path> </g> <g> <path class="st2" d="M92.2,79.6H66.4c-1.1,0-2-0.9-2-2s0.9-2,2-2h25.8c1.1,0,2,0.9,2,2S93.3,79.6,92.2,79.6z"></path> </g> <path class="st0" d="M83.1,117.5c-0.8,0-1.5-0.7-1.5-1.5v-11.3c0-0.8,0.7-1.5,1.5-1.5h11.3c0.8,0,1.5,0.7,1.5,1.5s-0.7,1.5-1.5,1.5 h-9.8v9.8C84.6,116.9,83.9,117.5,83.1,117.5z"></path> </g> </svg> 