<?xml version="1.0" encoding="UTF-8"?> <!-- Generator: Adobe Illustrator 25.3.1, SVG Export Plug-In . SVG Version: 6.00 Build 0) --> <svg xmlns="http://www.w3.org/2000/svg" xmlns:xlink="http://www.w3.org/1999/xlink" version="1.1" id="Layer_1" x="0px" y="0px" viewBox="0 0 138.9 138.9" style="enable-background:new 0 0 138.9 138.9;" xml:space="preserve"> <style type="text/css"> .st0{fill:#FFFFFF;} .st1{fill:#FFB700;} .st2{fill:#2ECC71;} </style> <g> <g> <path class="st0" d="M99.5,92.5c-0.3,0-0.6-0.1-0.9-0.3c-1.8-1.4-3.6-2.2-5.3-2.6l-17.6-5.1c-0.5-0.2-1-0.4-1.5-0.7 c-1.3-0.9-2.1-2.2-2.3-3.8L71,73.1c-0.1-0.5,0.2-1,0.6-1.4c4.6-3.6,8.1-9.1,9.8-15.4c0.2-0.6,0.7-1.1,1.3-1.1 c2.3-0.2,4.2-3.1,4.2-6.7c0-3.3-1.6-6.1-3.7-6.6c-0.8-0.2-1.3-1-1.1-1.8c0.2-0.8,1-1.3,1.8-1.1c3.5,0.9,6,4.8,6,9.5 c0,4.7-2.4,8.5-5.8,9.5c-1.8,6.3-5.3,11.7-9.9,15.5l0.7,6.1c0.1,0.7,0.4,1.3,1,1.7c0.2,0.1,0.4,0.2,0.6,0.3L94,86.7 c2,0.4,4.2,1.5,6.4,3.1c0.7,0.5,0.8,1.4,0.3,2.1C100.4,92.3,99.9,92.5,99.5,92.5z"></path> <path class="st0" d="M94.6,137H6.2c-0.4,0-0.8-0.2-1.1-0.5c-0.3-0.3-0.4-0.8-0.4-1.2l4.1-32.2c0,0,0-0.1,0-0.1 c1-4.9,3.6-9.3,7.5-12.5c2.5-2,5-3.3,7.5-3.9l17.4-5c0.2-0.1,0.4-0.2,0.6-0.3c0.6-0.4,0.9-1,1-1.7l0.7-6.1 c-4.6-3.8-8.1-9.3-9.9-15.5c-3.4-0.9-5.8-4.8-5.8-9.5c0-4.6,2.4-8.5,5.8-9.4c0.8-0.2,1.6,0.2,1.9,1c0.2,0.8-0.2,1.6-1,1.9 c-2.1,0.6-3.6,3.4-3.6,6.6c0,3.5,1.8,6.4,4.2,6.7c0.6,0.1,1.2,0.5,1.3,1.1c1.7,6.3,5.1,11.8,9.8,15.4c0.4,0.3,0.6,0.8,0.6,1.4 L45.8,80c-0.2,1.5-1,2.9-2.3,3.8c-0.5,0.3-1,0.5-1.5,0.7l-17.5,5.1c-2.1,0.5-4.2,1.6-6.3,3.3c-3.3,2.7-5.6,6.5-6.4,10.7L7.9,134 h86.7c0.8,0,1.5,0.7,1.5,1.5S95.5,137,94.6,137z"></path> </g> <path class="st0" d="M34,42.1c-0.8,0-1.4-0.6-1.5-1.4c0-0.4-0.7-10.3,3.3-16c0.5-0.7,1.4-0.9,2.1-0.4c0.7,0.5,0.9,1.4,0.4,2.1 c-3.4,4.9-2.8,14.1-2.8,14.1c0.1,0.8-0.6,1.5-1.4,1.6C34.1,42.1,34,42.1,34,42.1z"></path> <path class="st0" d="M83.5,42C83.5,42,83.4,42,83.5,42c-0.9,0-1.5-0.7-1.5-1.6c0-0.1,0.2-5.4-1.5-11.3c-0.2-0.8,0.2-1.6,1-1.9 c0.8-0.2,1.6,0.2,1.9,1c1.9,6.4,1.7,12,1.6,12.3C84.9,41.4,84.3,42,83.5,42z"></path> <path class="st0" d="M58.8,92.5c-0.4,0-0.7-0.1-1-0.4L43.5,79.3c-0.6-0.6-0.7-1.5-0.1-2.1c0.6-0.6,1.5-0.7,2.1-0.1L58.8,89 l13.3-11.9c0.6-0.6,1.6-0.5,2.1,0.1c0.6,0.6,0.5,1.6-0.1,2.1L59.8,92.1C59.5,92.4,59.2,92.5,58.8,92.5z"></path> <path class="st0" d="M72.4,27.2c-1.1,0-2.1-0.1-3-0.2c-2.6-0.3-5.1-0.9-7.5-1.5c-1.5-0.4-3.1-0.7-4.7-1c-4.8-0.9-8.4-0.9-11.5,0.1 c-0.8,0.2-1.6-0.2-1.9-1s0.2-1.6,1-1.9c3.6-1.1,7.7-1.2,13-0.1c1.6,0.3,3.2,0.7,4.8,1.1c2.4,0.6,4.8,1.1,7.2,1.5 c1.6,0.2,3.6,0.4,5.5-0.2c2.4-0.7,4.6-2.8,5.8-5.6c0.9-2.1,1-6.6,1-9.8c-4.4,1.5-8.5,1.6-12.9,0.4c-0.4-0.1-0.8-0.4-1-0.8 c-0.2-0.4-0.2-0.8,0-1.2c0.1-0.3,0.2-0.6,0.2-1C63.7,7.5,58,8.2,55.7,8.5l-0.4,0.1c-8,1.1-16.6,6.8-16.7,16.9 c0,0.8-0.7,1.5-1.5,1.5c0,0,0,0,0,0c-0.8,0-1.5-0.7-1.5-1.5C35.6,13.5,45.6,6.8,54.8,5.6l0.4-0.1c2.4-0.3,8.9-1.1,13.3-2.9 c0.7-0.3,1.4,0,1.8,0.6c0.6,1,0.9,2.1,0.8,3.1c3.9,0.8,7.5,0.4,11.7-1.4c0.5-0.2,1-0.1,1.4,0.1C84.7,5.3,85,5.8,85,6.3 c0.1,3.2,0.2,9.9-1.3,13.2c-1.6,3.6-4.4,6.2-7.6,7.2C74.8,27.1,73.6,27.2,72.4,27.2z"></path> <path class="st1" d="M77.3,14.1c-5.4,0.5-10.3-1.1-9.4-0.8c-6.1-1.6-15.4-0.7-20.4,3.2C62.9,14.6,76.1,26.2,77.3,14.1z"></path> <path class="st0" d="M111.4,137c-12.1,0-22-9.9-22-22s9.9-22,22-22s22,9.9,22,22S123.5,137,111.4,137z M111.4,96 c-10.5,0-19,8.5-19,19s8.5,19,19,19s19-8.5,19-19S121.9,96,111.4,96z"></path> <g id="XMLID_17640_"> <path class="st0" d="M109.6,123.8c-0.4,0-0.7-0.1-1-0.4l-7-6.2c-0.6-0.6-0.7-1.5-0.1-2.1c0.5-0.6,1.5-0.7,2.1-0.1l5.8,5.2 l10.3-12.7c0.5-0.6,1.5-0.7,2.1-0.2c0.6,0.5,0.7,1.5,0.2,2.1l-11.3,13.9c-0.3,0.3-0.6,0.5-1,0.5 C109.7,123.8,109.7,123.8,109.6,123.8z"></path> </g> <path class="st2" d="M25.6,94l-0.2,0c-1.3,0.3-2.8,1.1-4.3,2.4c-2.5,2-4.2,4.9-4.8,8L13,129.5h62.8c-0.3-0.1-0.5-0.3-0.8-0.4 c-9.7-4.5-20.6-5.9-31.2-7.1c-3.4-0.4-7-0.8-10-2.4c-3-1.7-5.4-5-4.9-8.5c0.4-2.3,2-4.3,3.5-6.1c3.9-4.9,7.3-10.3,10.1-16 l-16.7,4.8L25.6,94z"></path> </g> </svg> 