<?xml version="1.0" encoding="UTF-8"?> <!-- Generator: Adobe Illustrator 25.3.1, SVG Export Plug-In . SVG Version: 6.00 Build 0) --> <svg xmlns="http://www.w3.org/2000/svg" xmlns:xlink="http://www.w3.org/1999/xlink" version="1.1" id="Layer_1" x="0px" y="0px" viewBox="0 0 138.9 138.9" style="enable-background:new 0 0 138.9 138.9;" xml:space="preserve"> <style type="text/css"> .st0{fill:#FFFFFF;} .st1{fill:#2ECC71;} </style> <g> <path class="st0" d="M60.1,116.4c-30.7,0-55.6-24.9-55.6-55.6c0-30.7,24.9-55.6,55.6-55.6c30.7,0,55.6,24.9,55.6,55.6 C115.7,91.4,90.8,116.4,60.1,116.4z M60.1,8.1c-29,0-52.6,23.6-52.6,52.6c0,29,23.6,52.6,52.6,52.6c29,0,52.6-23.6,52.6-52.6 C112.7,31.7,89.1,8.1,60.1,8.1z"></path> <path class="st0" d="M125,134.3c-2.2,0-4.4-0.8-6.1-2.5L99.1,112c-0.6-0.6-0.6-1.5,0-2.1s1.5-0.6,2.1,0l19.7,19.7 c2.2,2.2,5.8,2.2,8,0c2.2-2.2,2.2-5.8,0-8l-19.7-19.7c-0.6-0.6-0.6-1.5,0-2.1s1.5-0.6,2.1,0l19.7,19.7c3.4,3.4,3.4,8.9,0,12.2 C129.4,133.5,127.2,134.3,125,134.3z"></path> <path class="st0" d="M82.5,122c-0.6,0-1.2-0.4-1.4-1c-0.3-0.8,0.1-1.6,0.9-1.9c17-6.1,30.3-19.4,36.4-36.4c0.3-0.8,1.1-1.2,1.9-0.9 c0.8,0.3,1.2,1.1,0.9,1.9c-6.4,17.8-20.4,31.8-38.2,38.2C82.9,122,82.7,122,82.5,122z"></path> <path class="st0" d="M74.3,99.7c-0.8,0-1.5-0.7-1.5-1.5V74.6c0-0.8,0.7-1.5,1.5-1.5s1.5,0.7,1.5,1.5v23.6 C75.8,99,75.2,99.7,74.3,99.7z"></path> <path class="st0" d="M45.4,99.7c-0.8,0-1.5-0.7-1.5-1.5V74.6c0-0.8,0.7-1.5,1.5-1.5s1.5,0.7,1.5,1.5v23.6 C46.9,99,46.3,99.7,45.4,99.7z"></path> <path class="st0" d="M60.1,48.8c-8.2,0-14.9-6.7-14.9-14.9s6.7-14.9,14.9-14.9c8.2,0,14.9,6.7,14.9,14.9S68.3,48.8,60.1,48.8z M60.1,21.9c-6.6,0-11.9,5.3-11.9,11.9s5.3,11.9,11.9,11.9c6.6,0,11.9-5.3,11.9-11.9S66.7,21.9,60.1,21.9z"></path> <path class="st0" d="M34.6,99.7c-0.8,0-1.5-0.7-1.5-1.5V64.3c0-5.6,4.6-10.2,10.2-10.2h33.6c5.6,0,10.2,4.6,10.2,10.2v30.6 c0,0.8-0.7,1.5-1.5,1.5s-1.5-0.7-1.5-1.5V64.3c0-4-3.2-7.2-7.2-7.2H43.3c-4,0-7.2,3.2-7.2,7.2v33.9C36.1,99,35.4,99.7,34.6,99.7z"></path> <path class="st1" d="M76.9,61.6H43.3c-1.5,0-2.7,1.2-2.7,2.7v6.6l0,0c3.2-2.2,7-3.4,10.9-3.4h8.7h8.7c3.9,0,7.7,1.2,10.9,3.4l0,0 v-6.6C79.6,62.8,78.4,61.6,76.9,61.6z"></path> </g> </svg> 