<?xml version="1.0" encoding="UTF-8"?> <!-- Generator: Adobe Illustrator 25.3.1, SVG Export Plug-In . SVG Version: 6.00 Build 0) --> <svg xmlns="http://www.w3.org/2000/svg" xmlns:xlink="http://www.w3.org/1999/xlink" version="1.1" id="Layer_1" x="0px" y="0px" viewBox="0 0 138.9 138.9" style="enable-background:new 0 0 138.9 138.9;" xml:space="preserve"> <style type="text/css"> .st0{fill:#FFFFFF;} .st1{fill:#2ECC71;} .st2{fill:#FFB700;} </style> <g> <path class="st0" d="M83.3,119.8c-0.8,0-1.5-0.7-1.5-1.5V94.7c0-0.8,0.7-1.5,1.5-1.5s1.5,0.7,1.5,1.5v23.6 C84.8,119.1,84.1,119.8,83.3,119.8z"></path> <path class="st0" d="M54.4,119.8c-0.8,0-1.5-0.7-1.5-1.5V94.7c0-0.8,0.7-1.5,1.5-1.5s1.5,0.7,1.5,1.5v23.6 C55.9,119.1,55.2,119.8,54.4,119.8z"></path> <path class="st0" d="M69.1,68.9c-8.2,0-14.9-6.7-14.9-14.9c0-8.2,6.7-14.9,14.9-14.9C77.3,39,84,45.7,84,53.9 C84,62.2,77.3,68.9,69.1,68.9z M69.1,42c-6.6,0-11.9,5.3-11.9,11.9c0,6.6,5.3,11.9,11.9,11.9c6.6,0,11.9-5.3,11.9-11.9 C81,47.4,75.6,42,69.1,42z"></path> <path class="st0" d="M94.6,119.8c-0.8,0-1.5-0.7-1.5-1.5V84.4c0-4-3.2-7.2-7.2-7.2H52.3c-4,0-7.2,3.2-7.2,7.2v33.9 c0,0.8-0.7,1.5-1.5,1.5s-1.5-0.7-1.5-1.5V84.4c0-5.6,4.6-10.2,10.2-10.2h33.6c5.6,0,10.2,4.6,10.2,10.2v33.9 C96.1,119.1,95.4,119.8,94.6,119.8z"></path> <path class="st0" d="M69.1,92.7c-0.8,0-1.5-0.7-1.5-1.5V75.7c0-0.8,0.7-1.5,1.5-1.5s1.5,0.7,1.5,1.5v15.5 C70.6,92.1,69.9,92.7,69.1,92.7z"></path> <path class="st0" d="M69.1,134.3c-0.6,0-13.1-0.6-25.7-13.4c-16.6-16.9-25-46.2-25-86.9v-1.2l50.7-11.7l50.7,11.7V34 c0,40.7-8.4,70-25,86.9C82.2,133.8,69.6,134.3,69.1,134.3z M21.4,35.2c0.1,27.2,4.4,63.3,24,83.4c11.3,11.7,22.8,12.6,23.7,12.7 c0.9-0.1,12.4-1,23.7-12.7c19.5-20.1,23.9-56.2,24-83.4l-47.7-11L21.4,35.2z"></path> <path class="st0" d="M102,15.8c-0.1,0-0.2,0-0.3,0L69.1,8.2l-32.6,7.5c-0.8,0.2-1.6-0.3-1.8-1.1c-0.2-0.8,0.3-1.6,1.1-1.8l33.3-7.7 l33.3,7.7c0.8,0.2,1.3,1,1.1,1.8C103.3,15.4,102.7,15.8,102,15.8z"></path> <path class="st1" d="M59.2,31.1l-33.3,7.7c0.3,18,2.4,32.2,5.5,43.5c0.7-11.5,3.5-23,9.6-32.7C45.7,42.1,52,36.1,59.2,31.1z"></path> <path class="st2" d="M78.9,31.1l33.3,7.7c-0.3,18-2.4,32.2-5.5,43.5c-0.7-11.5-3.5-23-9.6-32.7C92.4,42.1,86.1,36.1,78.9,31.1z"></path> </g> </svg> 