<?xml version="1.0" encoding="UTF-8"?> <!-- Generator: Adobe Illustrator 25.3.1, SVG Export Plug-In . SVG Version: 6.00 Build 0) --> <svg xmlns="http://www.w3.org/2000/svg" xmlns:xlink="http://www.w3.org/1999/xlink" version="1.1" id="Layer_1" x="0px" y="0px" viewBox="0 0 138.9 138.9" style="enable-background:new 0 0 138.9 138.9;" xml:space="preserve"> <style type="text/css"> .st0{fill:#FFFFFF;} .st1{fill:#2ECC71;} .st2{fill:#FFB700;} </style> <g> <g> <g> <path class="st0" d="M100,74.5c-0.8,0-1.5-0.7-1.5-1.5V61.6c0-0.8,0.7-1.5,1.5-1.5h4.4c3.3,0,5.9,2.7,5.9,5.9 c0,0.8-0.7,1.5-1.5,1.5s-1.5-0.7-1.5-1.5c0-1.6-1.3-2.9-2.9-2.9h-2.9V73C101.5,73.8,100.8,74.5,100,74.5z"></path> <path class="st0" d="M121.2,112.9h-19.1c-0.8,0-1.5-0.7-1.5-1.5s0.7-1.5,1.5-1.5H120c0.2-0.9,0.5-2.1,1-3.6 c2.5-7.8,3.9-16,4.1-24.4c0-0.8,0.7-1.5,1.5-1.5c0.8,0,1.5,0.7,1.5,1.5c-0.2,8.6-1.7,17.1-4.3,25.2c-0.8,2.5-1.2,4.4-1.2,4.5 C122.5,112.4,121.9,112.9,121.2,112.9z"></path> <path class="st0" d="M92.7,112.9c-0.7,0-1.3-0.5-1.5-1.2c0-0.1-1.5-7.9-6.6-13.6c-1.4-1.6-2.7-3.4-4-5.4 c-2.8-4.8-4.4-10.3-4.4-15.9c0-3.7,3-6.8,6.8-6.8c2.8,0,5.3,1.7,6.3,4.3l0.2,0.4V49.8c0-3.3,2.7-5.9,5.9-5.9 c3.3,0,5.9,2.7,5.9,5.9v11.8c0,0.8-0.7,1.5-1.5,1.5s-1.5-0.7-1.5-1.5V49.8c0-1.6-1.3-2.9-2.9-2.9s-2.9,1.3-2.9,2.9v32.9 c0,0.7-0.5,1.3-1.2,1.5c-0.7,0.1-1.4-0.3-1.7-0.9l-3.1-8c-0.6-1.4-2-2.4-3.5-2.4c-2.1,0-3.8,1.7-3.8,3.8c0,5.1,1.4,10.1,3.9,14.4 c1.1,1.9,2.3,3.6,3.6,5c5.7,6.4,7.2,14.8,7.3,15.1c0.1,0.8-0.4,1.6-1.2,1.7C92.8,112.9,92.8,112.9,92.7,112.9z"></path> <path class="st0" d="M117.8,81.7c-0.8,0-1.5-0.7-1.5-1.5V69.4c0-1.6-1.3-2.9-2.9-2.9h-2.9v9.9c0,0.8-0.7,1.5-1.5,1.5 s-1.5-0.7-1.5-1.5V65c0-0.8,0.7-1.5,1.5-1.5h4.4c3.3,0,5.9,2.7,5.9,5.9v10.8C119.3,81,118.6,81.7,117.8,81.7z"></path> <path class="st0" d="M126.7,83.5c-0.8,0-1.5-0.7-1.5-1.5v-6.9c0-1.6-1.3-2.9-2.9-2.9h-4.4c-0.8,0-1.5-0.7-1.5-1.5 c0-0.8,0.7-1.5,1.5-1.5h4.4c3.3,0,5.9,2.7,5.9,5.9V82C128.2,82.8,127.5,83.5,126.7,83.5z"></path> </g> <path class="st0" d="M123.7,132.6c-0.8,0-1.5-0.7-1.5-1.5v-12.2H90.7v12.2c0,0.8-0.7,1.5-1.5,1.5s-1.5-0.7-1.5-1.5v-13.7 c0-0.8,0.7-1.5,1.5-1.5h34.5c0.8,0,1.5,0.7,1.5,1.5v13.7C125.2,131.9,124.5,132.6,123.7,132.6z"></path> </g> <path class="st0" d="M79.6,127H17.2c-4,0-7.2-3.2-7.2-7.2V14.1c0-4,3.2-7.2,7.2-7.2h86c4,0,7.2,3.2,7.2,7.2v40 c0,0.8-0.7,1.5-1.5,1.5s-1.5-0.7-1.5-1.5v-40c0-2.3-1.9-4.2-4.2-4.2h-86c-2.3,0-4.2,1.9-4.2,4.2v105.7c0,2.3,1.9,4.2,4.2,4.2h62.4 c0.8,0,1.5,0.7,1.5,1.5S80.4,127,79.6,127z"></path> <path class="st0" d="M49.8,30.9H20.2c-0.8,0-1.5-0.7-1.5-1.5s0.7-1.5,1.5-1.5h29.7c0.8,0,1.5,0.7,1.5,1.5S50.7,30.9,49.8,30.9z"></path> <path class="st0" d="M35.3,51.3H20.2c-0.8,0-1.5-0.7-1.5-1.5s0.7-1.5,1.5-1.5h15.2c0.8,0,1.5,0.7,1.5,1.5S36.2,51.3,35.3,51.3z"></path> <path class="st0" d="M83.3,51.3H68.7c-0.8,0-1.5-0.7-1.5-1.5s0.7-1.5,1.5-1.5h14.6c0.8,0,1.5,0.7,1.5,1.5S84.1,51.3,83.3,51.3z"></path> <path class="st1" d="M45.5,56.8c-2.7,0-4.9-2.2-4.9-4.9c0-0.8,0.7-1.5,1.5-1.5s1.5,0.7,1.5,1.5c0,1.1,0.9,1.9,1.9,1.9 s1.9-0.9,1.9-1.9v-4.1c0-1.1-0.9-1.9-1.9-1.9c-0.8,0-1.5-0.7-1.5-1.5s0.7-1.5,1.5-1.5c2.7,0,4.9,2.2,4.9,4.9v4.1 C50.4,54.6,48.2,56.8,45.5,56.8z"></path> <path class="st1" d="M58.6,56.8c-2.7,0-4.9-2.2-4.9-4.9c0-0.8,0.7-1.5,1.5-1.5s1.5,0.7,1.5,1.5c0,1.1,0.9,1.9,1.9,1.9 s1.9-0.9,1.9-1.9v-4.1c0-1.1-0.9-1.9-1.9-1.9c-0.8,0-1.5-0.7-1.5-1.5s0.7-1.5,1.5-1.5c2.7,0,4.9,2.2,4.9,4.9v4.1 C63.6,54.6,61.4,56.8,58.6,56.8z"></path> <path class="st1" d="M59.6,36.4c-2.7,0-4.9-2.2-4.9-4.9c0-0.8,0.7-1.5,1.5-1.5s1.5,0.7,1.5,1.5c0,1.1,0.9,1.9,1.9,1.9 s1.9-0.9,1.9-1.9v-4.1c0-1.1-0.9-1.9-1.9-1.9c-0.8,0-1.5-0.7-1.5-1.5s0.7-1.5,1.5-1.5c2.7,0,4.9,2.2,4.9,4.9v4.1 C64.5,34.2,62.3,36.4,59.6,36.4z"></path> <path class="st1" d="M72.7,36.4c-2.7,0-4.9-2.2-4.9-4.9c0-0.8,0.7-1.5,1.5-1.5s1.5,0.7,1.5,1.5c0,1.1,0.9,1.9,1.9,1.9 s1.9-0.9,1.9-1.9v-4.1c0-1.1-0.9-1.9-1.9-1.9c-0.8,0-1.5-0.7-1.5-1.5s0.7-1.5,1.5-1.5c2.7,0,4.9,2.2,4.9,4.9v4.1 C77.7,34.2,75.4,36.4,72.7,36.4z"></path> <path class="st1" d="M85.9,36.4c-2.7,0-4.9-2.2-4.9-4.9c0-0.8,0.7-1.5,1.5-1.5s1.5,0.7,1.5,1.5c0,1.1,0.9,1.9,1.9,1.9 c1.1,0,1.9-0.9,1.9-1.9v-4.1c0-1.1-0.9-1.9-1.9-1.9c-0.8,0-1.5-0.7-1.5-1.5s0.7-1.5,1.5-1.5c2.7,0,4.9,2.2,4.9,4.9v4.1 C90.8,34.2,88.6,36.4,85.9,36.4z"></path> <path class="st1" d="M36.8,79c-2.7,0-4.9-2.2-4.9-4.9c0-0.8,0.7-1.5,1.5-1.5s1.5,0.7,1.5,1.5c0,1.1,0.9,1.9,1.9,1.9 s1.9-0.9,1.9-1.9V70c0-1.1-0.9-1.9-1.9-1.9c-0.8,0-1.5-0.7-1.5-1.5s0.7-1.5,1.5-1.5c2.7,0,4.9,2.2,4.9,4.9v4.1 C41.7,76.8,39.5,79,36.8,79z"></path> <path class="st1" d="M49.9,79c-2.7,0-4.9-2.2-4.9-4.9c0-0.8,0.7-1.5,1.5-1.5s1.5,0.7,1.5,1.5c0,1.1,0.9,1.9,1.9,1.9 s1.9-0.9,1.9-1.9V70c0-1.1-0.9-1.9-1.9-1.9c-0.8,0-1.5-0.7-1.5-1.5s0.7-1.5,1.5-1.5c2.7,0,4.9,2.2,4.9,4.9v4.1 C54.9,76.8,52.6,79,49.9,79z"></path> <path class="st0" d="M71.2,73.5H59.6c-0.8,0-1.5-0.7-1.5-1.5s0.7-1.5,1.5-1.5h11.6c0.8,0,1.5,0.7,1.5,1.5S72,73.5,71.2,73.5z"></path> <path class="st0" d="M27.8,73.5h-7.6c-0.8,0-1.5-0.7-1.5-1.5s0.7-1.5,1.5-1.5h7.6c0.8,0,1.5,0.7,1.5,1.5S28.6,73.5,27.8,73.5z"></path> <path class="st2" d="M55.3,119.5l-9.1-3.9c-11.8-5.1-21.2-14.4-26.4-26.1l-2.3-5.3v35.4H55.3z"></path> </g> </svg> 