<?xml version="1.0" encoding="UTF-8"?> <!-- Generator: Adobe Illustrator 25.3.1, SVG Export Plug-In . SVG Version: 6.00 Build 0) --> <svg xmlns="http://www.w3.org/2000/svg" xmlns:xlink="http://www.w3.org/1999/xlink" version="1.1" id="Layer_1" x="0px" y="0px" viewBox="0 0 261 60" style="enable-background:new 0 0 261 60;" xml:space="preserve"> <style type="text/css"> .st0{fill:#FFFFFF;} .st1{fill:url(#SVGID_1_);} .st2{opacity:0.35;fill:url(#SVGID_2_);} .st3{fill:url(#SVGID_3_);} .st4{fill:url(#SVGID_4_);} .st5{opacity:0.35;fill:url(#SVGID_5_);} .st6{fill:url(#SVGID_6_);} .st7{fill:url(#SVGID_7_);} .st8{opacity:0.35;fill:url(#SVGID_8_);} .st9{fill:url(#SVGID_9_);} </style> <g> <path class="st0" d="M100.17,15.98c-0.22-0.5-0.48-1.01-0.79-1.55c-0.3-0.54-0.61-1.04-0.93-1.51c-0.32-0.47-0.63-0.9-0.93-1.3 c-0.3-0.4-0.57-0.69-0.79-0.89c-0.58-0.55-1.21-0.92-1.88-1.09c-0.67-0.18-1.54-0.28-2.58-0.31c-0.52,0-0.98-0.01-1.36-0.02 c-0.39-0.01-0.77-0.02-1.16-0.02c-0.36,0-0.76,0-1.2,0c-0.41,0-0.92,0-1.53,0c0,0.69-0.01,1.63-0.02,2.81 c-0.01,1.18-0.02,2.42-0.02,3.72c0,1.29,0,2.58,0,3.84c0,1.24,0,2.29,0,3.14v9.17c0,0.8,0.02,1.56,0.06,2.29 c0.04,0.73,0.17,1.25,0.39,1.55c0.41,0.61,1,1.02,1.76,1.24c0.76,0.22,1.44,0.39,2.04,0.5v0.41H77.82v-0.41 c0.72-0.08,1.4-0.22,2.07-0.41c0.66-0.19,1.31-0.65,1.94-1.36c0.14-0.14,0.24-0.36,0.31-0.68c0.07-0.32,0.12-0.67,0.17-1.07 c0.04-0.4,0.07-0.83,0.08-1.3c0.01-0.47,0.02-0.92,0.02-1.36c0-0.39,0.01-0.89,0.02-1.53c0.01-0.63,0.03-1.34,0.04-2.11 c0.01-0.77,0.02-1.57,0.02-2.4s0-1.61,0-2.35V9.29c-0.58,0-1.09,0-1.53,0c-0.41,0-0.81,0-1.2,0c-0.36,0-0.74,0.01-1.14,0.02 c-0.4,0.01-0.86,0.02-1.38,0.02c-1.05,0.03-1.91,0.15-2.58,0.37c-0.68,0.22-1.3,0.61-1.88,1.16c-0.22,0.19-0.47,0.48-0.76,0.87 c-0.29,0.39-0.59,0.81-0.91,1.26c-0.32,0.45-0.62,0.94-0.91,1.47c-0.29,0.52-0.52,1.03-0.68,1.53l-0.37-0.12l1.24-7.85 c0.63,0.14,1.22,0.25,1.75,0.33c0.54,0.08,1.32,0.14,2.33,0.17c1.05,0.03,1.98,0.05,2.81,0.06c0.83,0.01,1.62,0.02,2.4,0.02 c0.77,0,1.56,0,2.35,0c0.83,0,1.75,0,2.77,0s1.93,0,2.73,0c0.83,0,1.62-0.01,2.4-0.02c0.77-0.01,1.57-0.03,2.4-0.04 c0.83-0.01,1.76-0.02,2.81-0.02c0.91-0.03,1.66-0.1,2.25-0.23c0.59-0.12,1.21-0.28,1.84-0.48l1.32,8.06L100.17,15.98z"></path> <path class="st0" d="M124.46,37.95c-0.25-0.25-0.43-0.43-0.54-0.56c-0.11-0.12-0.23-0.27-0.37-0.43c-0.14-0.17-0.31-0.41-0.52-0.72 c-0.21-0.32-0.53-0.79-0.97-1.43c-0.52-0.77-0.98-1.47-1.38-2.09s-0.81-1.23-1.22-1.84c-0.41-0.61-0.86-1.22-1.34-1.84 c-0.48-0.62-1.05-1.31-1.71-2.09c-0.55-0.63-1.15-1.23-1.8-1.78c-0.65-0.55-1.33-0.89-2.04-1.03c-0.52-0.11-0.92-0.17-1.2-0.17 c-0.25,0-0.57-0.01-0.95-0.04c0,1.79,0,3.35,0,4.67c0,1.32,0.01,2.44,0.04,3.35c0.03,0.88,0.05,1.64,0.08,2.27 c0.03,0.63,0.18,1.16,0.45,1.57c0.22,0.36,0.65,0.72,1.28,1.09c0.63,0.37,1.51,0.59,2.64,0.64v0.41h-13.22v-0.41 c0.69-0.11,1.35-0.28,1.98-0.5c0.63-0.22,1.13-0.55,1.49-0.99c0.14-0.17,0.25-0.41,0.33-0.74c0.08-0.33,0.14-0.7,0.19-1.12 c0.04-0.41,0.08-0.85,0.1-1.32c0.03-0.47,0.04-0.92,0.04-1.36c0-0.39,0.01-0.91,0.02-1.57c0.01-0.66,0.03-1.38,0.04-2.17 c0.01-0.78,0.02-1.59,0.02-2.42c0-0.85,0-1.65,0-2.4V14.9c0-0.5-0.01-1-0.02-1.51c-0.01-0.51-0.04-0.99-0.08-1.45 c-0.04-0.45-0.11-0.87-0.21-1.24c-0.1-0.37-0.23-0.64-0.39-0.81c-0.41-0.44-0.88-0.74-1.38-0.89c-0.51-0.15-1.14-0.28-1.88-0.39 V8.21c0.22,0,0.79,0,1.69,0c0.94,0,2-0.01,3.18-0.02c1.18-0.01,2.37-0.02,3.55-0.02c1.18,0,2.15,0,2.89,0 c1.84,0,3.48,0.06,4.92,0.17c1.43,0.11,2.74,0.48,3.92,1.12c1.21,0.63,2.19,1.49,2.93,2.58c0.74,1.09,1.12,2.46,1.12,4.11 c0,1.02-0.19,1.94-0.56,2.75c-0.37,0.81-0.87,1.53-1.49,2.15s-1.34,1.15-2.17,1.59c-0.83,0.44-1.69,0.81-2.6,1.12v0.12 c0.47,0.25,0.92,0.61,1.36,1.07c0.44,0.47,0.87,0.99,1.28,1.57c0.72,1.05,1.49,2.18,2.33,3.39c0.84,1.21,1.59,2.29,2.25,3.22 c1.02,1.43,2.01,2.48,2.97,3.14c0.96,0.66,2.09,1.09,3.39,1.28v0.41H124.46z M120.37,12.22c-0.69-1.07-1.69-1.93-3.02-2.56 c-0.66-0.3-1.36-0.52-2.09-0.66c-0.73-0.14-1.49-0.21-2.29-0.21c-0.58,0-1.05,0.01-1.4,0.04c-0.36,0.03-0.63,0.06-0.83,0.08 c-0.03,0.17-0.06,0.31-0.08,0.43c-0.03,0.12-0.05,0.28-0.06,0.48c-0.01,0.19-0.03,0.46-0.04,0.81c-0.01,0.34-0.04,0.83-0.06,1.47 c-0.03,0.96-0.05,2.05-0.06,3.26c-0.01,1.21-0.02,2.38-0.02,3.51c0,1.13,0,2.12,0,2.97c0,0.83,0,1.35,0,1.57 c1.13,0,2.18-0.05,3.16-0.14c0.98-0.1,1.92-0.3,2.83-0.6c0.88-0.27,1.64-0.65,2.27-1.12c0.63-0.47,1.15-1,1.55-1.59 c0.4-0.59,0.7-1.23,0.89-1.92c0.19-0.69,0.29-1.4,0.29-2.15C121.4,14.52,121.05,13.29,120.37,12.22z"></path> <path class="st0" d="M133.38,37.95v-0.41c0.69-0.11,1.33-0.29,1.92-0.54c0.59-0.25,1.09-0.61,1.51-1.07 c0.14-0.17,0.24-0.4,0.31-0.7c0.07-0.3,0.12-0.66,0.17-1.07s0.07-0.85,0.08-1.3c0.01-0.45,0.02-0.9,0.02-1.34 c0-0.39,0.01-0.91,0.02-1.57c0.01-0.66,0.03-1.38,0.04-2.17c0.01-0.78,0.02-1.59,0.02-2.42c0-0.85,0-1.65,0-2.4V14.9 c0-0.5,0-0.99,0-1.49s-0.02-0.96-0.06-1.38c-0.04-0.43-0.1-0.81-0.19-1.16c-0.08-0.34-0.21-0.61-0.37-0.81 c-0.39-0.47-0.86-0.81-1.42-1.01c-0.57-0.21-1.21-0.35-1.92-0.43V8.21h12.35v0.41c-0.58,0.08-1.2,0.23-1.86,0.45 c-0.66,0.22-1.17,0.66-1.53,1.32c-0.25,0.47-0.38,1.06-0.39,1.78c-0.01,0.72-0.04,1.39-0.06,2.02c0,0.69-0.01,1.37-0.02,2.04 c-0.01,0.68-0.02,1.36-0.02,2.04c0,0.69,0,1.4,0,2.15c0,0.72,0,1.5,0,2.35v9.34c0,0.8,0.01,1.57,0.04,2.31s0.15,1.27,0.37,1.57 c0.33,0.47,0.85,0.83,1.57,1.07c0.72,0.25,1.36,0.4,1.94,0.46v0.41H133.38z"></path> <path class="st0" d="M180.45,9.41c-0.62,0.39-1.09,0.98-1.43,1.78c-0.19,0.41-0.32,1.18-0.37,2.29c-0.06,1.12-0.11,2.31-0.17,3.57 c-0.06,1.18-0.1,2.58-0.14,4.19c-0.04,1.61-0.06,3.34-0.06,5.18c0,0.77,0,1.65,0,2.64c0,0.96,0.01,1.95,0.02,2.95 c0.01,1.01,0.02,2,0.02,2.99c0,0.99,0,1.89,0,2.69c0,0.11-0.04,0.2-0.1,0.27s-0.17,0.1-0.31,0.1c-0.22,0-0.47-0.14-0.74-0.41 c-2.34-2.7-4.48-5.18-6.4-7.44c-1.93-2.26-3.77-4.41-5.51-6.46c-1.75-2.05-3.46-4.05-5.14-6.01c-1.68-1.96-3.46-3.98-5.33-6.07 v17.43c0,1.4,0.03,2.67,0.1,3.8c0.07,1.13,0.24,1.97,0.52,2.52c0.3,0.63,0.78,1.11,1.42,1.43c0.65,0.32,1.54,0.54,2.67,0.68v0.41 h-10.16v-0.41c0.66-0.08,1.32-0.25,1.98-0.52c0.66-0.26,1.18-0.7,1.57-1.3c0.38-0.58,0.63-1.43,0.74-2.56 c0.11-1.13,0.19-2.48,0.25-4.05c0.05-1.18,0.1-2.58,0.12-4.19c0.03-1.61,0.04-3.34,0.04-5.18c0-0.8,0-1.46,0-1.98 c0-0.52,0-1.03,0-1.53s0-1,0-1.53c0-0.55-0.01-1.23-0.04-2.02c-0.08-0.8-0.28-1.45-0.58-1.96c-0.3-0.51-0.66-0.91-1.07-1.2 c-0.41-0.29-0.86-0.5-1.34-0.62c-0.48-0.12-0.94-0.21-1.38-0.27V8.21H158l19.58,22.88V17.05c0-1.1-0.01-2.15-0.04-3.16 c-0.03-1-0.15-1.8-0.37-2.38c-0.28-0.77-0.76-1.4-1.47-1.88c-0.7-0.48-1.71-0.82-3.04-1.01V8.21h10.24v0.41 C181.89,8.76,181.07,9.02,180.45,9.41z"></path> <path class="st0" d="M186,37.95v-0.41c0.69-0.11,1.33-0.29,1.92-0.54c0.59-0.25,1.09-0.61,1.51-1.07c0.14-0.17,0.24-0.4,0.31-0.7 c0.07-0.3,0.12-0.66,0.17-1.07s0.07-0.85,0.08-1.3c0.01-0.45,0.02-0.9,0.02-1.34c0-0.39,0.01-0.91,0.02-1.57 c0.01-0.66,0.03-1.38,0.04-2.17c0.01-0.78,0.02-1.59,0.02-2.42c0-0.85,0-1.65,0-2.4V14.9c0-0.5,0-0.99,0-1.49s-0.02-0.96-0.06-1.38 c-0.04-0.43-0.1-0.81-0.19-1.16c-0.08-0.34-0.21-0.61-0.37-0.81c-0.39-0.47-0.86-0.81-1.42-1.01c-0.57-0.21-1.21-0.35-1.92-0.43 V8.21h12.35v0.41c-0.58,0.08-1.2,0.23-1.86,0.45c-0.66,0.22-1.17,0.66-1.53,1.32c-0.25,0.47-0.38,1.06-0.39,1.78 c-0.01,0.72-0.04,1.39-0.06,2.02c0,0.69-0.01,1.37-0.02,2.04c-0.01,0.68-0.02,1.36-0.02,2.04c0,0.69,0,1.4,0,2.15 c0,0.72,0,1.5,0,2.35v9.34c0,0.8,0.01,1.57,0.04,2.31s0.15,1.27,0.37,1.57c0.33,0.47,0.85,0.83,1.57,1.07 c0.72,0.25,1.36,0.4,1.94,0.46v0.41H186z"></path> <path class="st0" d="M231.19,15.98c-0.22-0.5-0.48-1.01-0.79-1.55s-0.61-1.04-0.93-1.51c-0.32-0.47-0.63-0.9-0.93-1.3 c-0.3-0.4-0.57-0.69-0.79-0.89c-0.58-0.55-1.21-0.92-1.88-1.09c-0.67-0.18-1.54-0.28-2.58-0.31c-0.52,0-0.98-0.01-1.36-0.02 c-0.39-0.01-0.77-0.02-1.16-0.02c-0.36,0-0.76,0-1.2,0c-0.41,0-0.92,0-1.53,0c0,0.69-0.01,1.63-0.02,2.81 c-0.01,1.18-0.02,2.42-0.02,3.72c0,1.29,0,2.58,0,3.84c0,1.24,0,2.29,0,3.14v9.17c0,0.8,0.02,1.56,0.06,2.29 c0.04,0.73,0.17,1.25,0.39,1.55c0.41,0.61,1,1.02,1.75,1.24c0.76,0.22,1.44,0.39,2.04,0.5v0.41h-13.42v-0.41 c0.72-0.08,1.4-0.22,2.07-0.41s1.31-0.65,1.94-1.36c0.14-0.14,0.24-0.36,0.31-0.68c0.07-0.32,0.12-0.67,0.17-1.07 c0.04-0.4,0.07-0.83,0.08-1.3c0.01-0.47,0.02-0.92,0.02-1.36c0-0.39,0.01-0.89,0.02-1.53c0.01-0.63,0.03-1.34,0.04-2.11 c0.01-0.77,0.02-1.57,0.02-2.4s0-1.61,0-2.35V9.29c-0.58,0-1.09,0-1.53,0c-0.41,0-0.81,0-1.2,0c-0.36,0-0.74,0.01-1.14,0.02 c-0.4,0.01-0.86,0.02-1.38,0.02c-1.05,0.03-1.91,0.15-2.58,0.37c-0.67,0.22-1.3,0.61-1.88,1.16c-0.22,0.19-0.47,0.48-0.76,0.87 c-0.29,0.39-0.59,0.81-0.91,1.26s-0.62,0.94-0.91,1.47c-0.29,0.52-0.52,1.03-0.68,1.53l-0.37-0.12l1.24-7.85 c0.63,0.14,1.22,0.25,1.76,0.33c0.54,0.08,1.31,0.14,2.33,0.17c1.05,0.03,1.98,0.05,2.81,0.06c0.83,0.01,1.62,0.02,2.4,0.02 c0.77,0,1.56,0,2.35,0c0.83,0,1.75,0,2.77,0c1.02,0,1.93,0,2.73,0c0.83,0,1.62-0.01,2.4-0.02c0.77-0.01,1.57-0.03,2.4-0.04 c0.83-0.01,1.76-0.02,2.81-0.02c0.91-0.03,1.66-0.1,2.25-0.23c0.59-0.12,1.2-0.28,1.84-0.48l1.32,8.06L231.19,15.98z"></path> <path class="st0" d="M257.22,9.2c-0.55,0.28-1.06,0.63-1.53,1.07c-0.47,0.44-0.92,0.96-1.34,1.57c-0.43,0.61-0.89,1.29-1.38,2.07 c-0.33,0.52-0.79,1.23-1.38,2.13c-0.59,0.9-1.2,1.82-1.82,2.79c-0.62,0.96-1.22,1.89-1.8,2.77s-1.03,1.57-1.36,2.07v8.3 c0,0.8,0.02,1.58,0.06,2.33c0.04,0.76,0.17,1.29,0.39,1.59c0.41,0.61,0.95,1.01,1.61,1.2c0.66,0.19,1.29,0.35,1.9,0.46v0.41h-12.72 v-0.41c0.72-0.08,1.34-0.21,1.88-0.39c0.54-0.18,1.11-0.61,1.71-1.3c0.14-0.14,0.24-0.37,0.31-0.7c0.07-0.33,0.12-0.7,0.17-1.12 s0.07-0.85,0.08-1.32c0.01-0.47,0.02-0.92,0.02-1.36c0.03-0.77,0.05-1.69,0.06-2.75c0.01-1.06,0.02-2.35,0.02-3.86 c-0.06-0.08-0.22-0.34-0.5-0.78c-0.28-0.44-0.61-0.98-1.01-1.63c-0.4-0.65-0.84-1.37-1.32-2.17c-0.48-0.8-0.96-1.58-1.43-2.33 c-0.47-0.76-0.91-1.47-1.32-2.13c-0.41-0.66-0.76-1.2-1.03-1.61c-0.52-0.8-1-1.53-1.42-2.19c-0.43-0.66-0.86-1.23-1.3-1.69 c-0.44-0.47-0.88-0.84-1.3-1.12c-0.43-0.27-0.92-0.43-1.47-0.45V8.21h12.52v0.41c-0.41,0.03-0.83,0.07-1.24,0.12 s-0.8,0.14-1.16,0.27c-0.36,0.12-0.65,0.29-0.87,0.5c-0.22,0.21-0.33,0.49-0.33,0.85c0,0.36,0.2,0.9,0.6,1.63 c0.4,0.73,0.82,1.47,1.26,2.21c0.3,0.5,0.66,1.09,1.07,1.8c0.41,0.7,0.87,1.45,1.36,2.23c0.5,0.78,1,1.59,1.51,2.42 s0.98,1.61,1.43,2.35c0.36-0.52,0.8-1.19,1.32-2c0.52-0.81,1.05-1.64,1.59-2.48c0.54-0.84,1.05-1.65,1.53-2.42 c0.48-0.77,0.85-1.38,1.09-1.82c0.14-0.22,0.29-0.48,0.45-0.76s0.32-0.59,0.47-0.91c0.15-0.32,0.28-0.64,0.39-0.97 c0.11-0.33,0.17-0.63,0.17-0.91c0-0.44-0.11-0.78-0.33-1.03c-0.22-0.25-0.5-0.44-0.85-0.58c-0.34-0.14-0.72-0.24-1.14-0.31 c-0.41-0.07-0.81-0.13-1.2-0.19V8.21h9.54v0.41C258.43,8.74,257.77,8.93,257.22,9.2z"></path> </g> <g> <path class="st0" d="M75.1,52.81v-8.59h6.37v1.45h-4.63v1.9h4.31v1.45h-4.31v2.34h4.8v1.45H75.1z"></path> <path class="st0" d="M83.68,52.81v-8.59h2.6l1.56,5.86l1.54-5.86h2.6v8.59h-1.61v-6.76l-1.71,6.76H87l-1.7-6.76v6.76H83.68z"></path> <path class="st0" d="M94.3,52.81v-8.59h2.78c1.05,0,1.74,0.04,2.06,0.13c0.49,0.13,0.9,0.41,1.24,0.84s0.5,0.99,0.5,1.67 c0,0.53-0.1,0.97-0.29,1.33s-0.43,0.64-0.73,0.85s-0.59,0.34-0.9,0.41c-0.41,0.08-1.01,0.12-1.8,0.12h-1.13v3.24H94.3z M96.04,45.67v2.44h0.95c0.68,0,1.14-0.04,1.37-0.13s0.41-0.23,0.54-0.42s0.2-0.41,0.2-0.67c0-0.31-0.09-0.57-0.28-0.77 s-0.42-0.33-0.7-0.38c-0.21-0.04-0.62-0.06-1.25-0.06H96.04z"></path> <path class="st0" d="M102.96,52.81v-8.52h1.73v7.07H109v1.45H102.96z"></path> <path class="st0" d="M110.49,48.57c0-0.88,0.13-1.61,0.39-2.2c0.2-0.44,0.46-0.83,0.8-1.18s0.71-0.61,1.11-0.77 c0.54-0.23,1.15-0.34,1.85-0.34c1.27,0,2.28,0.39,3.04,1.18s1.14,1.88,1.14,3.28c0,1.39-0.38,2.47-1.13,3.25s-1.76,1.17-3.02,1.17 c-1.28,0-2.29-0.39-3.05-1.17S110.49,49.94,110.49,48.57z M112.27,48.51c0,0.97,0.22,1.71,0.67,2.21s1.02,0.75,1.71,0.75 s1.26-0.25,1.7-0.75s0.67-1.25,0.67-2.24c0-0.98-0.22-1.72-0.65-2.2s-1-0.73-1.72-0.73s-1.29,0.25-1.73,0.74 S112.27,47.52,112.27,48.51z"></path> <path class="st0" d="M123.03,52.81V49.2l-3.15-4.97h2.03l2.02,3.4l1.98-3.4h2l-3.16,4.99v3.6H123.03z"></path> <path class="st0" d="M129.35,52.81v-8.59h2.6l1.56,5.86l1.54-5.86h2.6v8.59h-1.61v-6.76l-1.71,6.76h-1.67l-1.7-6.76v6.76H129.35z"></path> <path class="st0" d="M139.97,52.81v-8.59h6.37v1.45h-4.63v1.9h4.31v1.45h-4.31v2.34h4.8v1.45H139.97z"></path> <path class="st0" d="M148.59,52.81v-8.59h1.69l3.52,5.74v-5.74h1.61v8.59h-1.74l-3.46-5.6v5.6H148.59z"></path> <path class="st0" d="M159.78,52.81v-7.14h-2.55v-1.45h6.83v1.45h-2.54v7.14H159.78z"></path> <path class="st0" d="M169.27,50.02l1.69-0.16c0.1,0.57,0.31,0.98,0.62,1.25s0.73,0.4,1.26,0.4c0.56,0,0.98-0.12,1.26-0.35 s0.42-0.51,0.42-0.83c0-0.2-0.06-0.38-0.18-0.52s-0.33-0.27-0.62-0.37c-0.2-0.07-0.67-0.2-1.39-0.38 c-0.93-0.23-1.58-0.51-1.96-0.85c-0.53-0.47-0.79-1.05-0.79-1.73c0-0.44,0.12-0.85,0.37-1.23s0.61-0.67,1.07-0.87 s1.03-0.3,1.69-0.3c1.08,0,1.89,0.24,2.43,0.71s0.83,1.1,0.86,1.89l-1.73,0.08c-0.07-0.44-0.23-0.76-0.48-0.95s-0.61-0.29-1.1-0.29 c-0.5,0-0.9,0.1-1.18,0.31c-0.18,0.13-0.28,0.31-0.28,0.53c0,0.2,0.09,0.38,0.26,0.52c0.22,0.18,0.75,0.38,1.59,0.57 s1.47,0.41,1.87,0.62s0.72,0.5,0.95,0.87s0.34,0.83,0.34,1.37c0,0.49-0.14,0.95-0.41,1.38s-0.66,0.75-1.16,0.96 s-1.12,0.31-1.87,0.31c-1.09,0-1.92-0.25-2.5-0.75S169.38,50.98,169.27,50.02z"></path> <path class="st0" d="M178.31,52.81v-8.59h2.78c1.05,0,1.74,0.04,2.06,0.13c0.49,0.13,0.9,0.41,1.24,0.84s0.5,0.99,0.5,1.67 c0,0.53-0.1,0.97-0.29,1.33s-0.43,0.64-0.73,0.85s-0.59,0.34-0.9,0.41c-0.41,0.08-1.01,0.12-1.8,0.12h-1.13v3.24H178.31z M180.04,45.67v2.44h0.95c0.68,0,1.14-0.04,1.37-0.13s0.41-0.23,0.54-0.42s0.2-0.41,0.2-0.67c0-0.31-0.09-0.57-0.28-0.77 s-0.42-0.33-0.7-0.38c-0.21-0.04-0.62-0.06-1.25-0.06H180.04z"></path> <path class="st0" d="M186.91,52.81v-8.59h6.37v1.45h-4.63v1.9h4.31v1.45h-4.31v2.34h4.8v1.45H186.91z"></path> <path class="st0" d="M201.01,49.65l1.68,0.53c-0.26,0.94-0.69,1.63-1.29,2.09s-1.36,0.68-2.28,0.68c-1.14,0-2.08-0.39-2.81-1.17 s-1.1-1.84-1.1-3.2c0-1.43,0.37-2.54,1.11-3.33s1.71-1.19,2.91-1.19c1.05,0,1.9,0.31,2.56,0.93c0.39,0.37,0.68,0.89,0.88,1.58 L200.96,47c-0.1-0.45-0.31-0.8-0.64-1.05s-0.71-0.39-1.17-0.39c-0.64,0-1.15,0.23-1.55,0.69s-0.59,1.2-0.59,2.22 c0,1.09,0.2,1.86,0.59,2.32s0.9,0.69,1.52,0.69c0.46,0,0.86-0.15,1.19-0.44S200.87,50.28,201.01,49.65z"></path> <path class="st0" d="M204.73,52.81v-8.59h1.73v8.59H204.73z"></path> <path class="st0" d="M216.46,52.81h-1.89l-0.75-1.95h-3.43l-0.71,1.95h-1.84l3.35-8.59h1.83L216.46,52.81z M213.27,49.41 l-1.18-3.19l-1.16,3.19H213.27z"></path> <path class="st0" d="M218.03,52.81v-8.52h1.73v7.07h4.31v1.45H218.03z"></path> <path class="st0" d="M225.86,52.81v-8.59h1.73v8.59H225.86z"></path> <path class="st0" d="M229.41,50.02l1.69-0.16c0.1,0.57,0.31,0.98,0.62,1.25s0.73,0.4,1.26,0.4c0.56,0,0.98-0.12,1.26-0.35 s0.42-0.51,0.42-0.83c0-0.2-0.06-0.38-0.18-0.52s-0.33-0.27-0.62-0.37c-0.2-0.07-0.67-0.2-1.39-0.38 c-0.93-0.23-1.58-0.51-1.96-0.85c-0.53-0.47-0.79-1.05-0.79-1.73c0-0.44,0.12-0.85,0.37-1.23s0.61-0.67,1.07-0.87 s1.03-0.3,1.69-0.3c1.08,0,1.89,0.24,2.43,0.71s0.83,1.1,0.86,1.89l-1.73,0.08c-0.07-0.44-0.23-0.76-0.48-0.95s-0.61-0.29-1.1-0.29 c-0.5,0-0.9,0.1-1.18,0.31c-0.18,0.13-0.28,0.31-0.28,0.53c0,0.2,0.09,0.38,0.26,0.52c0.22,0.18,0.75,0.38,1.59,0.57 s1.47,0.41,1.87,0.62s0.72,0.5,0.95,0.87s0.34,0.83,0.34,1.37c0,0.49-0.14,0.95-0.41,1.38s-0.66,0.75-1.16,0.96 s-1.12,0.31-1.87,0.31c-1.09,0-1.92-0.25-2.5-0.75S229.52,50.98,229.41,50.02z"></path> <path class="st0" d="M240.39,52.81v-7.14h-2.55v-1.45h6.83v1.45h-2.54v7.14H240.39z"></path> <path class="st0" d="M245.94,50.02l1.69-0.16c0.1,0.57,0.31,0.98,0.62,1.25s0.73,0.4,1.26,0.4c0.56,0,0.98-0.12,1.26-0.35 s0.42-0.51,0.42-0.83c0-0.2-0.06-0.38-0.18-0.52s-0.33-0.27-0.62-0.37c-0.2-0.07-0.67-0.2-1.39-0.38 c-0.93-0.23-1.58-0.51-1.96-0.85c-0.53-0.47-0.79-1.05-0.79-1.73c0-0.44,0.12-0.85,0.37-1.23s0.61-0.67,1.07-0.87 s1.03-0.3,1.69-0.3c1.08,0,1.89,0.24,2.43,0.71s0.83,1.1,0.86,1.89l-1.73,0.08c-0.07-0.44-0.23-0.76-0.48-0.95s-0.61-0.29-1.1-0.29 c-0.5,0-0.9,0.1-1.18,0.31c-0.18,0.13-0.28,0.31-0.28,0.53c0,0.2,0.09,0.38,0.26,0.52c0.22,0.18,0.75,0.38,1.59,0.57 s1.47,0.41,1.87,0.62s0.72,0.5,0.95,0.87s0.34,0.83,0.34,1.37c0,0.49-0.14,0.95-0.41,1.38s-0.66,0.75-1.16,0.96 s-1.12,0.31-1.87,0.31c-1.09,0-1.92-0.25-2.5-0.75S246.06,50.98,245.94,50.02z"></path> </g> <g> <g> <radialGradient id="SVGID_1_" cx="32.3017" cy="21.5" r="17.527" gradientTransform="matrix(0.9993 -0.0365 0.0365 0.9993 -0.7637 1.194)" gradientUnits="userSpaceOnUse"> <stop offset="0" style="stop-color:#90C900"></stop> <stop offset="1" style="stop-color:#007B39"></stop> </radialGradient> <path class="st1" d="M17.06,23.56c0,0,1.23-21.06,17.22-21.64c16.06,1.41,15.2,32.47,10.42,38.65 C42.56,36.64,46.57,9.47,17.06,23.56z"></path> <radialGradient id="SVGID_2_" cx="31.2137" cy="12.8896" r="12.4058" gradientTransform="matrix(0.9993 -0.0365 0.0365 0.9993 -0.7637 1.194)" gradientUnits="userSpaceOnUse"> <stop offset="0" style="stop-color:#FFFFFF"></stop> <stop offset="1" style="stop-color:#FFFFFF;stop-opacity:0.4"></stop> </radialGradient> <path class="st2" d="M17.24,23.94c0,0,1.23-21.06,17.22-21.64c6.86,0.36,11.19,9.21,10.4,10.63C33.25,0.95,24.51,8.28,17.24,23.94 z"></path> </g> <radialGradient id="SVGID_3_" cx="34" cy="27" r="4" gradientUnits="userSpaceOnUse"> <stop offset="0" style="stop-color:#90C900"></stop> <stop offset="1" style="stop-color:#007B39"></stop> </radialGradient> <circle class="st3" cx="34" cy="27" r="4"></circle> </g> <g> <g> <radialGradient id="SVGID_4_" cx="44.3969" cy="1.4738" r="17.527" gradientTransform="matrix(-0.4988 0.8667 -0.8667 -0.4988 66.9806 3.7371)" gradientUnits="userSpaceOnUse"> <stop offset="0" style="stop-color:#FFE000"></stop> <stop offset="1" style="stop-color:#FF9B00"></stop> </radialGradient> <path class="st4" d="M49.89,27.47c0,0,17.2,12.21,9.22,26.08C49.4,66.42,23.53,49.22,20.82,41.9 C25.29,42.16,46.2,59.96,49.89,27.47z"></path> <radialGradient id="SVGID_5_" cx="43.309" cy="-7.1366" r="12.4058" gradientTransform="matrix(-0.4988 0.8667 -0.8667 -0.4988 66.9806 3.7371)" gradientUnits="userSpaceOnUse"> <stop offset="0" style="stop-color:#FFFFFF"></stop> <stop offset="1" style="stop-color:#FFFFFF;stop-opacity:0.4"></stop> </radialGradient> <path class="st5" d="M49.48,27.41c0,0,17.2,12.21,9.22,26.08c-3.94,5.63-13.74,4.6-14.52,3.18C60.48,53.18,58.9,41.89,49.48,27.41 z"></path> </g> <radialGradient id="SVGID_6_" cx="37.9961" cy="40.0074" r="4.0005" gradientUnits="userSpaceOnUse"> <stop offset="0" style="stop-color:#FFE000"></stop> <stop offset="1" style="stop-color:#FF9B00"></stop> </radialGradient> <circle class="st6" cx="38" cy="40.01" r="4"></circle> </g> <g> <g> <radialGradient id="SVGID_7_" cx="60.4707" cy="-12.2235" r="17.527" gradientTransform="matrix(-0.5865 -0.8099 0.8099 -0.5865 65.7437 84.2805)" gradientUnits="userSpaceOnUse"> <stop offset="0" style="stop-color:#00A8EF"></stop> <stop offset="1" style="stop-color:#0050AB"></stop> </radialGradient> <path class="st7" d="M30.57,53.99c0,0-18.18,10.7-27.57-2.26c-7.76-14.13,18.52-30.69,26.31-30.16 C27.24,25.53,2.44,37.31,30.57,53.99z"></path> <radialGradient id="SVGID_8_" cx="59.3828" cy="-20.8339" r="12.4058" gradientTransform="matrix(-0.5865 -0.8099 0.8099 -0.5865 65.7437 84.2805)" gradientUnits="userSpaceOnUse"> <stop offset="0" style="stop-color:#FFFFFF"></stop> <stop offset="1" style="stop-color:#FFFFFF;stop-opacity:0.4"></stop> </radialGradient> <path class="st8" d="M30.79,53.63c0,0-18.18,10.7-27.57-2.26c-3.52-5.9,1.42-14.42,3.04-14.55C2.78,53.12,13.72,56.3,30.79,53.63z "></path> </g> <radialGradient id="SVGID_9_" cx="60.9187" cy="-7.7297" r="4" gradientTransform="matrix(-0.5565 -0.8308 0.8308 -0.5565 64.3266 84.3106)" gradientUnits="userSpaceOnUse"> <stop offset="0" style="stop-color:#00A8EF"></stop> <stop offset="1" style="stop-color:#0050AB"></stop> </radialGradient> <circle class="st9" cx="24" cy="38" r="4"></circle> </g> </svg> 