<?xml version="1.0" encoding="UTF-8"?> <!-- Generator: Adobe Illustrator 25.3.1, SVG Export Plug-In . SVG Version: 6.00 Build 0) --> <svg xmlns="http://www.w3.org/2000/svg" xmlns:xlink="http://www.w3.org/1999/xlink" version="1.1" id="Layer_1" x="0px" y="0px" viewBox="0 0 63 60" style="enable-background:new 0 0 63 60;" xml:space="preserve"> <style type="text/css"> .st0{fill:url(#SVGID_1_);} .st1{opacity:0.35;fill:url(#SVGID_2_);} .st2{fill:url(#SVGID_3_);} .st3{fill:url(#SVGID_4_);} .st4{opacity:0.35;fill:url(#SVGID_5_);} .st5{fill:url(#SVGID_6_);} .st6{fill:url(#SVGID_7_);} .st7{opacity:0.35;fill:url(#SVGID_8_);} .st8{fill:url(#SVGID_9_);} </style> <g> <g> <radialGradient id="SVGID_1_" cx="32.3017" cy="21.5" r="17.527" gradientTransform="matrix(0.9993 -0.0365 0.0365 0.9993 -0.7637 1.194)" gradientUnits="userSpaceOnUse"> <stop offset="0" style="stop-color:#90C900"></stop> <stop offset="1" style="stop-color:#007B39"></stop> </radialGradient> <path class="st0" d="M17.06,23.56c0,0,1.23-21.06,17.22-21.64c16.06,1.41,15.2,32.47,10.42,38.65 C42.56,36.64,46.57,9.47,17.06,23.56z"></path> <radialGradient id="SVGID_2_" cx="31.2137" cy="12.8896" r="12.4058" gradientTransform="matrix(0.9993 -0.0365 0.0365 0.9993 -0.7637 1.194)" gradientUnits="userSpaceOnUse"> <stop offset="0" style="stop-color:#FFFFFF"></stop> <stop offset="1" style="stop-color:#FFFFFF;stop-opacity:0.4"></stop> </radialGradient> <path class="st1" d="M17.24,23.94c0,0,1.23-21.06,17.22-21.64c6.86,0.36,11.19,9.21,10.4,10.63C33.25,0.95,24.51,8.28,17.24,23.94 z"></path> </g> <radialGradient id="SVGID_3_" cx="34" cy="27" r="4" gradientUnits="userSpaceOnUse"> <stop offset="0" style="stop-color:#90C900"></stop> <stop offset="1" style="stop-color:#007B39"></stop> </radialGradient> <circle class="st2" cx="34" cy="27" r="4"></circle> </g> <g> <g> <radialGradient id="SVGID_4_" cx="44.3969" cy="1.4738" r="17.527" gradientTransform="matrix(-0.4988 0.8667 -0.8667 -0.4988 66.9806 3.7371)" gradientUnits="userSpaceOnUse"> <stop offset="0" style="stop-color:#FFE000"></stop> <stop offset="1" style="stop-color:#FF9B00"></stop> </radialGradient> <path class="st3" d="M49.89,27.47c0,0,17.2,12.21,9.22,26.08C49.4,66.42,23.53,49.22,20.82,41.9 C25.29,42.16,46.2,59.96,49.89,27.47z"></path> <radialGradient id="SVGID_5_" cx="43.309" cy="-7.1366" r="12.4058" gradientTransform="matrix(-0.4988 0.8667 -0.8667 -0.4988 66.9806 3.7371)" gradientUnits="userSpaceOnUse"> <stop offset="0" style="stop-color:#FFFFFF"></stop> <stop offset="1" style="stop-color:#FFFFFF;stop-opacity:0.4"></stop> </radialGradient> <path class="st4" d="M49.48,27.41c0,0,17.2,12.21,9.22,26.08c-3.94,5.63-13.74,4.6-14.52,3.18C60.48,53.18,58.9,41.89,49.48,27.41 z"></path> </g> <radialGradient id="SVGID_6_" cx="37.9961" cy="40.0074" r="4.0005" gradientUnits="userSpaceOnUse"> <stop offset="0" style="stop-color:#FFE000"></stop> <stop offset="1" style="stop-color:#FF9B00"></stop> </radialGradient> <circle class="st5" cx="38" cy="40.01" r="4"></circle> </g> <g> <g> <radialGradient id="SVGID_7_" cx="60.4707" cy="-12.2235" r="17.527" gradientTransform="matrix(-0.5865 -0.8099 0.8099 -0.5865 65.7437 84.2805)" gradientUnits="userSpaceOnUse"> <stop offset="0" style="stop-color:#00A8EF"></stop> <stop offset="1" style="stop-color:#0050AB"></stop> </radialGradient> <path class="st6" d="M30.57,53.99c0,0-18.18,10.7-27.57-2.26c-7.76-14.13,18.52-30.69,26.31-30.16 C27.24,25.53,2.44,37.31,30.57,53.99z"></path> <radialGradient id="SVGID_8_" cx="59.3828" cy="-20.8339" r="12.4058" gradientTransform="matrix(-0.5865 -0.8099 0.8099 -0.5865 65.7437 84.2805)" gradientUnits="userSpaceOnUse"> <stop offset="0" style="stop-color:#FFFFFF"></stop> <stop offset="1" style="stop-color:#FFFFFF;stop-opacity:0.4"></stop> </radialGradient> <path class="st7" d="M30.79,53.63c0,0-18.18,10.7-27.57-2.26c-3.52-5.9,1.42-14.42,3.04-14.55C2.78,53.12,13.72,56.3,30.79,53.63z "></path> </g> <radialGradient id="SVGID_9_" cx="60.9187" cy="-7.7297" r="4" gradientTransform="matrix(-0.5565 -0.8308 0.8308 -0.5565 64.3266 84.3106)" gradientUnits="userSpaceOnUse"> <stop offset="0" style="stop-color:#00A8EF"></stop> <stop offset="1" style="stop-color:#0050AB"></stop> </radialGradient> <circle class="st8" cx="24" cy="38" r="4"></circle> </g> </svg> 