<?xml version="1.0" encoding="UTF-8"?> <!-- Generator: Adobe Illustrator 25.3.1, SVG Export Plug-In . SVG Version: 6.00 Build 0) --> <svg xmlns="http://www.w3.org/2000/svg" xmlns:xlink="http://www.w3.org/1999/xlink" version="1.1" id="Layer_1" x="0px" y="0px" viewBox="0 0 144 144" style="enable-background:new 0 0 144 144;" xml:space="preserve"> <style type="text/css"> .st0{fill:#FFB700;} </style> <g> <path class="st0" d="M65.16,87.13v32.99c0,6.83-5.54,12.37-12.37,12.37H19.79c-6.83,0-12.37-5.54-12.37-12.37V58.26 c0-22.79,18.46-41.24,41.24-41.24h2.06c3.43,0,6.19,2.76,6.19,6.19v12.37c0,3.43-2.76,6.19-6.19,6.19h-2.06 c-9.1,0-16.5,7.4-16.5,16.5v16.5h20.62C59.61,74.75,65.16,80.3,65.16,87.13z M139.39,87.13v32.99c0,6.83-5.54,12.37-12.37,12.37 H94.03c-6.83,0-12.37-5.54-12.37-12.37V58.26c0-22.79,18.46-41.24,41.24-41.24h2.06c3.43,0,6.19,2.76,6.19,6.19v12.37 c0,3.43-2.76,6.19-6.19,6.19h-2.06c-9.1,0-16.5,7.4-16.5,16.5v16.5h20.62C133.85,74.75,139.39,80.3,139.39,87.13z"></path> </g> </svg> 