<?xml version="1.0" encoding="UTF-8"?> <!-- Generator: Adobe Illustrator 25.3.1, SVG Export Plug-In . SVG Version: 6.00 Build 0) --> <svg xmlns="http://www.w3.org/2000/svg" xmlns:xlink="http://www.w3.org/1999/xlink" version="1.1" id="Layer_1" x="0px" y="0px" viewBox="0 0 144 144" style="enable-background:new 0 0 144 144;" xml:space="preserve"> <style type="text/css"> .st0{fill:#FFB700;} </style> <g> <path class="st0" d="M65.16,29.39v61.86c0,22.79-18.46,41.24-41.24,41.24h-2.06c-3.43,0-6.19-2.76-6.19-6.19v-12.37 c0-3.43,2.76-6.19,6.19-6.19h2.06c9.1,0,16.5-7.4,16.5-16.5v-16.5H19.79c-6.83,0-12.37-5.54-12.37-12.37V29.39 c0-6.83,5.54-12.37,12.37-12.37h32.99C59.61,17.02,65.16,22.56,65.16,29.39z M139.39,29.39v61.86c0,22.79-18.46,41.24-41.24,41.24 h-2.06c-3.43,0-6.19-2.76-6.19-6.19v-12.37c0-3.43,2.76-6.19,6.19-6.19h2.06c9.1,0,16.5-7.4,16.5-16.5v-16.5H94.03 c-6.83,0-12.37-5.54-12.37-12.37V29.39c0-6.83,5.54-12.37,12.37-12.37h32.99C133.85,17.02,139.39,22.56,139.39,29.39z"></path> </g> </svg> 