<?xml version="1.0" encoding="UTF-8"?> <!-- Generator: Adobe Illustrator 25.3.1, SVG Export Plug-In . SVG Version: 6.00 Build 0) --> <svg xmlns="http://www.w3.org/2000/svg" xmlns:xlink="http://www.w3.org/1999/xlink" version="1.1" id="Layer_1" x="0px" y="0px" viewBox="0 0 129.83 121.77" style="enable-background:new 0 0 129.83 121.77;" xml:space="preserve"> <style type="text/css"> .st0{fill:#34495E;} .st1{fill:#FFB700;} .st2{fill:#2ECC71;} .st3{fill:#4285F4;} .st4{fill:#EA4335;} .st5{fill:#FBBC05;} .st6{fill:#34A853;} </style> <g> <g> <g> <polygon class="st0" points="36,38.36 36.56,40.07 38.37,40.07 36.91,41.12 37.46,42.83 36,41.77 34.54,42.83 35.1,41.12 33.64,40.07 35.45,40.07 "></polygon> <polygon class="st0" points="50.39,38.36 50.94,40.07 52.75,40.07 51.29,41.12 51.85,42.83 50.39,41.77 48.93,42.83 49.48,41.12 48.02,40.07 49.83,40.07 "></polygon> <polygon class="st0" points="64.77,38.36 65.33,40.07 67.13,40.07 65.67,41.12 66.23,42.83 64.77,41.77 63.31,42.83 63.87,41.12 62.41,40.07 64.21,40.07 "></polygon> <g> <polygon class="st0" points="79.15,38.42 79.71,40.14 81.51,40.14 80.05,41.19 80.61,42.9 79.15,41.83 77.69,42.89 78.25,41.19 76.79,40.14 78.59,40.14 "></polygon> <polygon class="st0" points="93.53,38.42 94.09,40.14 95.9,40.14 94.44,41.19 94.99,42.9 93.53,41.83 92.07,42.89 92.63,41.19 91.17,40.14 92.98,40.14 "></polygon> </g> </g> <g> <g> <path class="st1" d="M72.18,19.67l3.43-7.91c0,0-2.94,6.03-6.06,6.03c-2.56,0-4.76-7.36-4.76-7.36s-2.31,7.35-4.7,7.35 c-3.21,0-6.14-6.05-6.14-6.05l3.43,7.92h14.8V19.67z"></path> </g> <path class="st1" d="M57.42,19.67v3.58h14.73v-3.58H57.42z M60.39,22.57c0-0.79-0.37-1.16-1.16-1.16c0.79,0,1.16-0.37,1.16-1.16 c0,0.79,0.37,1.16,1.16,1.16C60.75,21.41,60.39,21.78,60.39,22.57z M62.59,22.07c0-0.45-0.21-0.66-0.66-0.66 c0.45,0,0.66-0.21,0.66-0.66c0,0.45,0.21,0.66,0.66,0.66C62.8,21.41,62.59,21.62,62.59,22.07z M64.79,22.57 c0-0.79-0.37-1.16-1.16-1.16c0.79,0,1.16-0.37,1.16-1.16c0,0.79,0.37,1.16,1.16,1.16C65.16,21.41,64.79,21.78,64.79,22.57z M67,22.07c0-0.45-0.21-0.66-0.66-0.66c0.45,0,0.66-0.21,0.66-0.66c0,0.45,0.21,0.66,0.66,0.66C67.21,21.41,67,21.62,67,22.07z M69.2,22.57c0-0.79-0.37-1.16-1.16-1.16c0.79,0,1.16-0.37,1.16-1.16c0,0.79,0.37,1.16,1.16,1.16 C69.57,21.41,69.2,21.78,69.2,22.57z"></path> </g> </g> <g> <path class="st0" d="M47.61,104.12c0,0-0.41,3.76,1.23,6.37c1.52,2.42,3.34,4.02,4.35,3.76c-1.38-1.57-4.29-7.4-4.19-7.47 c0.1-0.07,3.86,5.43,4.72,7.13c0.67-0.79,0.01-3.11-1.51-5.53C51.08,106.57,47.61,104.12,47.61,104.12z"></path> <path class="st0" d="M42.43,120.11c0,0,2-3.22,4.89-4.26c2.69-0.97,5.11-1.11,5.74-0.28c-2.05,0.39-7.94,3.19-7.9,3.3 s6.39-1.9,8.11-2.71c0.04,1.04-1.91,2.46-4.6,3.43C46.68,120.31,42.43,120.11,42.43,120.11z"></path> <path class="st0" d="M43.31,106.08c0,0-0.63,2.16,0.06,3.85c0.64,1.57,1.54,2.7,2.15,2.65c-0.65-1.06-1.75-4.77-1.68-4.8 s1.7,3.58,2.03,4.66c0.48-0.39,0.33-1.82-0.31-3.39C45.08,107.87,43.31,106.08,43.31,106.08z"></path> <path class="st0" d="M39.12,114.78c0,0,1.5-1.67,3.3-1.99c1.67-0.29,3.1-0.12,3.39,0.43c-1.24,0.01-4.97,1.05-4.96,1.12 c0.01,0.07,3.93-0.45,5.02-0.75c-0.08,0.61-1.37,1.24-3.04,1.53C41.59,115.33,39.12,114.78,39.12,114.78z"></path> <path class="st0" d="M36.84,98.19c0,0-1.37,3.53-0.46,6.47c0.84,2.73,2.19,4.75,3.23,4.76c-0.93-1.87-2.23-8.26-2.11-8.3 s2.33,6.25,2.71,8.11c0.86-0.59,0.82-3-0.03-5.74C39.56,101.46,36.84,98.19,36.84,98.19z"></path> <path class="st0" d="M27.71,112.3c0,0,2.76-2.59,5.83-2.85c2.85-0.24,5.22,0.25,5.62,1.21c-2.08-0.16-8.5,1.02-8.49,1.15 c0.01,0.12,6.67-0.18,8.53-0.52c-0.23,1.02-2.48,1.88-5.33,2.12C31.76,113.59,27.71,112.3,27.71,112.3z"></path> <path class="st0" d="M32.19,98.97c0,0-1.16,1.92-0.94,3.74c0.21,1.69,0.79,3,1.4,3.11c-0.35-1.19-0.45-5.06-0.38-5.07 s0.72,3.9,0.75,5.02c0.56-0.26,0.79-1.67,0.58-3.36C33.44,101.16,32.19,98.97,32.19,98.97z"></path> <path class="st0" d="M25.89,106.29c0,0,1.88-1.23,3.7-1.06c1.69,0.15,3.03,0.68,3.16,1.29c-1.2-0.31-5.08-0.28-5.08-0.2 c-0.01,0.07,3.92,0.58,5.04,0.58c-0.24,0.57-1.64,0.84-3.34,0.69C28.13,107.46,25.89,106.29,25.89,106.29z"></path> <path class="st0" d="M27.99,89.67c0,0-2.23,3.06-2.12,6.13c0.11,2.86,0.88,5.15,1.89,5.43c-0.41-2.05-0.02-8.56,0.11-8.56 c0.12,0,0.63,6.64,0.52,8.53c0.98-0.35,1.57-2.69,1.46-5.55C29.76,93.54,27.99,89.67,27.99,89.67z"></path> <path class="st0" d="M15.51,100.94c0,0,3.34-1.79,6.36-1.24c2.82,0.51,4.98,1.59,5.11,2.62c-1.97-0.69-8.47-1.21-8.5-1.09 c-0.02,0.12,6.49,1.55,8.38,1.71c-0.48,0.92-2.88,1.18-5.7,0.67C19.08,103.23,15.51,100.94,15.51,100.94z"></path> <path class="st0" d="M23.28,89.22c0,0-1.62,1.56-1.87,3.37c-0.23,1.68-0.02,3.1,0.54,3.37c-0.03-1.24,0.87-5.01,0.95-5 c0.07,0.01-0.32,3.95-0.57,5.05c0.61-0.1,1.19-1.41,1.43-3.09C23.92,91.67,23.28,89.22,23.28,89.22z"></path> <path class="st0" d="M15.31,94.66c0,0,2.14-0.7,3.85-0.07c1.59,0.59,2.75,1.44,2.72,2.06c-1.08-0.61-4.83-1.58-4.86-1.51 s3.63,1.58,4.72,1.86c-0.38,0.49-1.81,0.39-3.4-0.2C17.17,96.38,15.31,94.66,15.31,94.66z"></path> <path class="st0" d="M21.63,79.16c0,0-2.95,2.37-3.63,5.37c-0.64,2.79-0.48,5.21,0.42,5.73c0.13-2.09,2.2-8.27,2.32-8.24 c0.12,0.03-1.11,6.57-1.7,8.38c1.04-0.08,2.21-2.19,2.85-4.98C22.35,83.35,21.63,79.16,21.63,79.16z"></path> <path class="st0" d="M6.66,86.8c0,0,3.69-0.86,6.47,0.45c2.59,1.22,4.4,2.83,4.26,3.86c-1.73-1.18-7.87-3.36-7.92-3.25 s5.86,3.18,7.65,3.82c-0.71,0.77-3.09,0.39-5.68-0.83C9.52,89.95,6.66,86.8,6.66,86.8z"></path> <path class="st0" d="M17.21,77.5c0,0-1.97,1.08-2.68,2.77c-0.66,1.57-0.82,2.99-0.35,3.39c0.29-1.21,2.14-4.61,2.21-4.58 c0.07,0.03-1.33,3.73-1.86,4.72c0.62,0.06,1.52-1.05,2.18-2.62C17.19,80.03,17.21,77.5,17.21,77.5z"></path> <path class="st0" d="M8.1,80.69c0,0,2.25-0.12,3.74,0.93c1.39,0.98,2.28,2.11,2.09,2.7c-0.89-0.87-4.26-2.78-4.3-2.72 s3.1,2.46,4.08,3.02c-0.49,0.37-1.85-0.09-3.23-1.07C9.45,82.83,8.1,80.69,8.1,80.69z"></path> <path class="st0" d="M18.22,67.35c0,0-3.46,1.53-4.9,4.25c-1.34,2.53-1.81,4.9-1.08,5.64c0.67-1.98,4.27-7.42,4.38-7.36 s-2.77,6.06-3.81,7.65c1.02,0.19,2.7-1.54,4.04-4.07C17.82,71.59,18.22,67.35,18.22,67.35z"></path> <path class="st0" d="M1.78,70.87c0,0,3.78,0.12,6.13,2.11c2.19,1.85,3.52,3.87,3.11,4.83c-1.36-1.59-6.73-5.29-6.81-5.19 c-0.08,0.09,4.84,4.58,6.4,5.67c-0.88,0.56-3.08-0.42-5.27-2.27C3.73,74.65,1.78,70.87,1.78,70.87z"></path> <path class="st0" d="M14.37,64.61c0,0-2.18,0.54-3.3,1.98c-1.04,1.34-1.57,2.68-1.21,3.19c0.6-1.09,3.26-3.9,3.32-3.86 c0.06,0.04-2.25,3.26-3.02,4.08c0.58,0.22,1.74-0.63,2.78-1.97C13.7,67.05,14.37,64.61,14.37,64.61z"></path> <path class="st0" d="M4.75,65.34c0,0,2.2,0.46,3.37,1.86c1.09,1.3,1.66,2.63,1.32,3.15c-0.63-1.07-3.39-3.79-3.45-3.74 c-0.06,0.05,2.36,3.18,3.16,3.98c-0.57,0.23-1.76-0.56-2.85-1.87C5.5,67.75,4.75,65.34,4.75,65.34z"></path> <path class="st0" d="M17.97,55.07c0,0-3.74,0.58-5.83,2.83c-1.95,2.1-3.02,4.27-2.51,5.17c1.16-1.74,6.04-6.06,6.13-5.98 c0.09,0.08-4.25,5.14-5.66,6.4c0.94,0.45,3.01-0.79,4.95-2.89C16.5,59.06,17.97,55.07,17.97,55.07z"></path> <path class="st0" d="M1.19,54.21c0,0,3.62,1.1,5.38,3.62c1.63,2.35,2.39,4.65,1.76,5.47c-0.9-1.88-5.14-6.85-5.24-6.78 s3.49,5.68,4.71,7.13c-0.99,0.31-2.87-1.21-4.5-3.55C2.09,58.36,1.19,54.21,1.19,54.21z"></path> <path class="st0" d="M14.97,51.43c0,0-2.25-0.05-3.7,1.06c-1.35,1.03-2.21,2.18-2,2.77c0.86-0.9,4.16-2.92,4.2-2.86 c0.04,0.06-3.02,2.57-3.97,3.16c0.5,0.36,1.84-0.15,3.2-1.18C13.69,53.61,14.97,51.43,14.97,51.43z"></path> <path class="st0" d="M5.48,49.63c0,0,2.01,1.02,2.77,2.67c0.71,1.54,0.92,2.96,0.46,3.38c-0.33-1.2-2.3-4.53-2.36-4.5 c-0.07,0.03,1.46,3.68,2.02,4.66c-0.61,0.08-1.55-1-2.27-2.54C5.58,52.16,5.48,49.63,5.48,49.63z"></path> <path class="st0" d="M20.92,43.14c0,0-3.76-0.41-6.37,1.23c-2.42,1.52-4.02,3.34-3.76,4.35c1.57-1.38,7.4-4.29,7.47-4.19 s-5.43,3.86-7.13,4.72c0.79,0.67,3.11,0.01,5.53-1.51C18.46,46.61,20.92,43.14,20.92,43.14z"></path> <path class="st0" d="M4.92,37.96c0,0,3.22,2,4.26,4.89c0.97,2.69,1.11,5.11,0.28,5.74c-0.39-2.05-3.19-7.94-3.3-7.9 c-0.12,0.04,1.9,6.39,2.71,8.11c-1.04,0.04-2.46-1.91-3.43-4.6C4.72,42.21,4.92,37.96,4.92,37.96z"></path> <path class="st0" d="M18.96,38.84c0,0-2.16-0.63-3.85,0.06c-1.57,0.64-2.7,1.54-2.65,2.15c1.06-0.65,4.77-1.75,4.8-1.68 c0.03,0.07-3.58,1.7-4.66,2.03c0.39,0.48,1.82,0.33,3.39-0.31C17.16,40.62,18.96,38.84,18.96,38.84z"></path> <path class="st0" d="M10.26,34.66c0,0,1.67,1.5,1.99,3.3c0.29,1.67,0.12,3.1-0.43,3.39c-0.01-1.24-1.05-4.97-1.12-4.96 c-0.07,0.01,0.45,3.93,0.75,5.02c-0.61-0.08-1.24-1.37-1.53-3.04C9.7,37.12,10.26,34.66,10.26,34.66z"></path> <path class="st0" d="M26.85,32.38c0,0-3.53-1.37-6.47-0.46c-2.73,0.84-4.75,2.19-4.76,3.23c1.87-0.93,8.26-2.23,8.3-2.11 c0.04,0.12-6.25,2.33-8.11,2.71c0.59,0.86,3,0.82,5.74-0.03C23.58,35.1,26.85,32.38,26.85,32.38z"></path> <path class="st0" d="M12.74,23.24c0,0,2.59,2.76,2.85,5.83c0.24,2.85-0.25,5.22-1.21,5.62c0.16-2.08-1.02-8.5-1.15-8.49 c-0.12,0.01,0.18,6.67,0.52,8.53c-1.02-0.23-1.88-2.48-2.12-5.33C11.44,27.29,12.74,23.24,12.74,23.24z"></path> <path class="st0" d="M26.07,27.72c0,0-1.92-1.16-3.74-0.94c-1.69,0.21-3,0.79-3.11,1.4c1.19-0.35,5.06-0.45,5.07-0.38 c0.01,0.07-3.9,0.72-5.02,0.75c0.26,0.56,1.67,0.79,3.36,0.58C23.87,28.97,26.07,27.72,26.07,27.72z"></path> <path class="st0" d="M18.75,21.43c0,0,1.23,1.88,1.06,3.7c-0.15,1.69-0.68,3.03-1.29,3.16c0.31-1.2,0.28-5.08,0.2-5.08 c-0.07-0.01-0.58,3.92-0.58,5.04c-0.57-0.24-0.84-1.64-0.69-3.34C17.57,23.66,18.75,21.43,18.75,21.43z"></path> <path class="st0" d="M35.36,23.52c0,0-3.06-2.23-6.13-2.12c-2.86,0.11-5.15,0.88-5.43,1.89c2.05-0.41,8.56-0.02,8.56,0.11 c0,0.12-6.64,0.63-8.53,0.52c0.35,0.98,2.69,1.57,5.55,1.46C31.5,25.3,35.36,23.52,35.36,23.52z"></path> <path class="st0" d="M24.1,11.04c0,0,1.79,3.34,1.24,6.36c-0.51,2.82-1.59,4.98-2.62,5.11c0.69-1.97,1.21-8.47,1.09-8.5 c-0.12-0.02-1.55,6.49-1.71,8.38c-0.92-0.48-1.18-2.88-0.67-5.7C21.8,14.62,24.1,11.04,24.1,11.04z"></path> <path class="st0" d="M35.81,18.82c0,0-1.56-1.62-3.37-1.87c-1.68-0.23-3.1-0.02-3.37,0.54c1.24-0.03,5.01,0.87,5,0.95 c-0.01,0.07-3.95-0.32-5.05-0.57c0.1,0.61,1.41,1.19,3.09,1.43C33.37,19.46,35.81,18.82,35.81,18.82z"></path> <path class="st0" d="M30.37,10.85c0,0,0.7,2.14,0.07,3.85c-0.59,1.59-1.44,2.75-2.06,2.72c0.61-1.08,1.58-4.83,1.51-4.86 c-0.07-0.03-1.58,3.63-1.86,4.72c-0.49-0.38-0.39-1.81,0.2-3.4C28.66,12.7,30.37,10.85,30.37,10.85z"></path> <path class="st0" d="M45.88,17.17c0,0-2.37-2.95-5.37-3.63c-2.79-0.64-5.21-0.48-5.73,0.42c2.09,0.13,8.27,2.2,8.24,2.32 s-6.57-1.11-8.38-1.7c0.08,1.04,2.19,2.21,4.98,2.85C41.69,17.88,45.88,17.17,45.88,17.17z"></path> <path class="st0" d="M38.23,2.2c0,0,0.86,3.69-0.45,6.47c-1.22,2.59-2.83,4.4-3.86,4.26c1.18-1.73,3.36-7.87,3.25-7.92 s-3.18,5.86-3.82,7.65c-0.77-0.71-0.39-3.09,0.83-5.68C35.08,5.06,38.23,2.2,38.23,2.2z"></path> <path class="st0" d="M47.53,12.74c0,0-1.08-1.97-2.77-2.68c-1.57-0.66-2.99-0.82-3.39-0.35c1.21,0.29,4.61,2.14,4.58,2.21 s-3.73-1.33-4.72-1.86c-0.06,0.62,1.05,1.52,2.62,2.18C45.01,12.73,47.53,12.74,47.53,12.74z"></path> <path class="st0" d="M44.34,3.63c0,0,0.12,2.25-0.93,3.74c-0.98,1.39-2.11,2.28-2.7,2.09c0.87-0.89,2.78-4.26,2.72-4.3 c-0.06-0.04-2.46,3.1-3.02,4.08c-0.37-0.49,0.09-1.85,1.07-3.23C42.2,4.98,44.34,3.63,44.34,3.63z"></path> <path class="st0" d="M81.93,104.12c0,0,0.41,3.76-1.23,6.37c-1.52,2.42-3.34,4.02-4.35,3.76c1.38-1.57,4.29-7.4,4.19-7.47 s-3.86,5.43-4.72,7.13c-0.67-0.79-0.01-3.11,1.51-5.53C78.46,106.57,81.93,104.12,81.93,104.12z"></path> <path class="st0" d="M87.11,120.11c0,0-2-3.22-4.89-4.26c-2.69-0.97-5.11-1.11-5.74-0.28c2.05,0.39,7.94,3.19,7.9,3.3 s-6.39-1.9-8.11-2.71c-0.04,1.04,1.91,2.46,4.6,3.43C82.86,120.31,87.11,120.11,87.11,120.11z"></path> <path class="st0" d="M86.23,106.08c0,0,0.63,2.16-0.06,3.85c-0.64,1.57-1.54,2.7-2.15,2.65c0.65-1.06,1.75-4.77,1.68-4.8 s-1.7,3.58-2.03,4.66c-0.48-0.39-0.33-1.82,0.31-3.39C84.45,107.87,86.23,106.08,86.23,106.08z"></path> <path class="st0" d="M90.41,114.78c0,0-1.5-1.67-3.3-1.99c-1.67-0.29-3.1-0.12-3.39,0.43c1.24,0.01,4.97,1.05,4.96,1.12 s-3.93-0.45-5.02-0.75c0.08,0.61,1.37,1.24,3.04,1.53C87.95,115.33,90.41,114.78,90.41,114.78z"></path> <path class="st0" d="M92.69,98.19c0,0,1.37,3.53,0.46,6.47c-0.84,2.73-2.19,4.75-3.23,4.76c0.93-1.87,2.23-8.26,2.11-8.3 s-2.33,6.25-2.71,8.11c-0.86-0.59-0.82-3,0.03-5.74C89.98,101.46,92.69,98.19,92.69,98.19z"></path> <path class="st0" d="M101.83,112.3c0,0-2.76-2.59-5.83-2.85c-2.85-0.24-5.22,0.25-5.62,1.21c2.08-0.16,8.5,1.02,8.49,1.15 c-0.01,0.12-6.67-0.18-8.53-0.52c0.23,1.02,2.48,1.88,5.33,2.12C97.78,113.59,101.83,112.3,101.83,112.3z"></path> <path class="st0" d="M97.35,98.97c0,0,1.16,1.92,0.94,3.74c-0.21,1.69-0.79,3-1.4,3.11c0.35-1.19,0.45-5.06,0.38-5.07 s-0.72,3.9-0.75,5.02c-0.56-0.26-0.79-1.67-0.58-3.36C96.1,101.16,97.35,98.97,97.35,98.97z"></path> <path class="st0" d="M103.64,106.29c0,0-1.88-1.23-3.7-1.06c-1.69,0.15-3.03,0.68-3.16,1.29c1.2-0.31,5.08-0.28,5.08-0.2 c0.01,0.07-3.92,0.58-5.04,0.58c0.24,0.57,1.64,0.84,3.34,0.69C101.41,107.46,103.64,106.29,103.64,106.29z"></path> <path class="st0" d="M101.55,89.67c0,0,2.23,3.06,2.12,6.13c-0.11,2.86-0.88,5.15-1.89,5.43c0.41-2.05,0.02-8.56-0.11-8.56 c-0.12,0-0.63,6.64-0.52,8.53c-0.98-0.35-1.57-2.69-1.46-5.55C99.78,93.54,101.55,89.67,101.55,89.67z"></path> <path class="st0" d="M114.03,100.94c0,0-3.34-1.79-6.36-1.24c-2.82,0.51-4.98,1.59-5.11,2.62c1.97-0.69,8.47-1.21,8.5-1.09 c0.02,0.12-6.49,1.55-8.38,1.71c0.48,0.92,2.88,1.18,5.7,0.67C110.45,103.23,114.03,100.94,114.03,100.94z"></path> <path class="st0" d="M106.26,89.22c0,0,1.62,1.56,1.87,3.37c0.23,1.68,0.02,3.1-0.54,3.37c0.03-1.24-0.87-5.01-0.95-5 c-0.07,0.01,0.32,3.95,0.57,5.05c-0.61-0.1-1.19-1.41-1.43-3.09C105.61,91.67,106.26,89.22,106.26,89.22z"></path> <path class="st0" d="M114.23,94.66c0,0-2.14-0.7-3.85-0.07c-1.59,0.59-2.75,1.44-2.72,2.06c1.08-0.61,4.83-1.58,4.86-1.51 s-3.63,1.58-4.72,1.86c0.38,0.49,1.81,0.39,3.4-0.2C112.37,96.38,114.23,94.66,114.23,94.66z"></path> <path class="st0" d="M107.91,79.16c0,0,2.95,2.37,3.63,5.37c0.64,2.79,0.48,5.21-0.42,5.73c-0.13-2.09-2.2-8.27-2.32-8.24 s1.11,6.57,1.7,8.38c-1.04-0.08-2.21-2.19-2.85-4.98C107.19,83.35,107.91,79.16,107.91,79.16z"></path> <path class="st0" d="M122.87,86.8c0,0-3.69-0.86-6.47,0.45c-2.59,1.22-4.4,2.83-4.26,3.86c1.73-1.18,7.87-3.36,7.92-3.25 c0.05,0.11-5.86,3.18-7.65,3.82c0.71,0.77,3.09,0.39,5.68-0.83C120.01,89.95,122.87,86.8,122.87,86.8z"></path> <path class="st0" d="M112.33,77.5c0,0,1.97,1.08,2.68,2.77c0.66,1.57,0.82,2.99,0.35,3.39c-0.29-1.21-2.14-4.61-2.21-4.58 s1.33,3.73,1.86,4.72c-0.62,0.06-1.52-1.05-2.18-2.62C112.34,80.03,112.33,77.5,112.33,77.5z"></path> <path class="st0" d="M121.44,80.69c0,0-2.25-0.12-3.74,0.93c-1.39,0.98-2.28,2.11-2.09,2.7c0.89-0.87,4.26-2.78,4.3-2.72 s-3.1,2.46-4.08,3.02c0.49,0.37,1.85-0.09,3.23-1.07C120.09,82.83,121.44,80.69,121.44,80.69z"></path> <path class="st0" d="M111.32,67.35c0,0,3.46,1.53,4.9,4.25c1.34,2.53,1.81,4.9,1.08,5.64c-0.67-1.98-4.27-7.42-4.38-7.36 s2.77,6.06,3.81,7.65c-1.02,0.19-2.7-1.54-4.04-4.07C111.71,71.59,111.32,67.35,111.32,67.35z"></path> <path class="st0" d="M127.76,70.87c0,0-3.78,0.12-6.13,2.11c-2.19,1.85-3.52,3.87-3.11,4.83c1.36-1.59,6.73-5.29,6.81-5.19 c0.08,0.09-4.84,4.58-6.4,5.67c0.88,0.56,3.08-0.42,5.27-2.27C125.81,74.65,127.76,70.87,127.76,70.87z"></path> <path class="st0" d="M115.17,64.61c0,0,2.18,0.54,3.3,1.98c1.04,1.34,1.57,2.68,1.21,3.19c-0.6-1.09-3.26-3.9-3.32-3.86 s2.25,3.26,3.02,4.08c-0.58,0.22-1.74-0.63-2.78-1.97C115.83,67.05,115.17,64.61,115.17,64.61z"></path> <path class="st0" d="M124.79,65.34c0,0-2.2,0.46-3.37,1.86c-1.09,1.3-1.66,2.63-1.32,3.15c0.63-1.07,3.39-3.79,3.45-3.74 s-2.36,3.18-3.16,3.98c0.57,0.23,1.76-0.56,2.85-1.87C124.04,67.75,124.79,65.34,124.79,65.34z"></path> <path class="st0" d="M111.57,55.07c0,0,3.74,0.58,5.83,2.83c1.95,2.1,3.02,4.27,2.51,5.17c-1.16-1.74-6.04-6.06-6.13-5.98 s4.25,5.14,5.66,6.4c-0.94,0.45-3.01-0.79-4.95-2.89C113.04,59.06,111.57,55.07,111.57,55.07z"></path> <path class="st0" d="M128.35,54.21c0,0-3.62,1.1-5.38,3.62c-1.63,2.35-2.39,4.65-1.76,5.47c0.9-1.88,5.14-6.85,5.24-6.78 s-3.49,5.68-4.71,7.13c0.99,0.31,2.87-1.21,4.5-3.55C127.45,58.36,128.35,54.21,128.35,54.21z"></path> <path class="st0" d="M114.57,51.43c0,0,2.25-0.05,3.7,1.06c1.35,1.03,2.21,2.18,2,2.77c-0.86-0.9-4.16-2.92-4.2-2.86 c-0.04,0.06,3.02,2.57,3.97,3.16c-0.5,0.36-1.84-0.15-3.2-1.18C115.85,53.61,114.57,51.43,114.57,51.43z"></path> <path class="st0" d="M124.06,49.63c0,0-2.01,1.02-2.77,2.67c-0.71,1.54-0.92,2.96-0.46,3.38c0.33-1.2,2.3-4.53,2.36-4.5 c0.07,0.03-1.46,3.68-2.02,4.66c0.61,0.08,1.55-1,2.27-2.54C123.96,52.16,124.06,49.63,124.06,49.63z"></path> <path class="st0" d="M108.62,43.14c0,0,3.76-0.41,6.37,1.23c2.42,1.52,4.02,3.34,3.76,4.35c-1.57-1.38-7.4-4.29-7.47-4.19 c-0.07,0.1,5.43,3.86,7.13,4.72c-0.79,0.67-3.11,0.01-5.53-1.51C111.08,46.61,108.62,43.14,108.62,43.14z"></path> <path class="st0" d="M124.61,37.96c0,0-3.22,2-4.26,4.89c-0.97,2.69-1.11,5.11-0.28,5.74c0.39-2.05,3.19-7.94,3.3-7.9 c0.12,0.04-1.9,6.39-2.71,8.11c1.04,0.04,2.46-1.91,3.43-4.6C124.82,42.21,124.61,37.96,124.61,37.96z"></path> <path class="st0" d="M110.58,38.84c0,0,2.16-0.63,3.85,0.06c1.57,0.64,2.7,1.54,2.65,2.15c-1.06-0.65-4.77-1.75-4.8-1.68 s3.58,1.7,4.66,2.03c-0.39,0.48-1.82,0.33-3.39-0.31C112.38,40.62,110.58,38.84,110.58,38.84z"></path> <path class="st0" d="M119.28,34.66c0,0-1.67,1.5-1.99,3.3c-0.29,1.67-0.12,3.1,0.43,3.39c0.01-1.24,1.05-4.97,1.12-4.96 c0.07,0.01-0.45,3.93-0.75,5.02c0.61-0.08,1.24-1.37,1.53-3.04C119.84,37.12,119.28,34.66,119.28,34.66z"></path> <path class="st0" d="M102.69,32.38c0,0,3.53-1.37,6.47-0.46c2.73,0.84,4.75,2.19,4.76,3.23c-1.87-0.93-8.26-2.23-8.3-2.11 s6.25,2.33,8.11,2.71c-0.59,0.86-3,0.82-5.74-0.03C105.96,35.1,102.69,32.38,102.69,32.38z"></path> <path class="st0" d="M116.8,23.24c0,0-2.59,2.76-2.85,5.83c-0.24,2.85,0.25,5.22,1.21,5.62c-0.16-2.08,1.02-8.5,1.15-8.49 c0.12,0.01-0.18,6.67-0.52,8.53c1.02-0.23,1.88-2.48,2.12-5.33C118.09,27.29,116.8,23.24,116.8,23.24z"></path> <path class="st0" d="M103.47,27.72c0,0,1.92-1.16,3.74-0.94c1.69,0.21,3,0.79,3.11,1.4c-1.19-0.35-5.06-0.45-5.07-0.38 c-0.01,0.07,3.9,0.72,5.02,0.75c-0.26,0.56-1.67,0.79-3.36,0.58C105.67,28.97,103.47,27.72,103.47,27.72z"></path> <path class="st0" d="M110.79,21.43c0,0-1.23,1.88-1.06,3.7c0.15,1.69,0.68,3.03,1.29,3.16c-0.31-1.2-0.28-5.08-0.2-5.08 c0.07-0.01,0.58,3.92,0.58,5.04c0.57-0.24,0.84-1.64,0.69-3.34C111.97,23.66,110.79,21.43,110.79,21.43z"></path> <path class="st0" d="M94.18,23.52c0,0,3.06-2.23,6.13-2.12c2.86,0.11,5.15,0.88,5.43,1.89c-2.05-0.41-8.56-0.02-8.56,0.11 c0,0.12,6.64,0.63,8.53,0.52c-0.35,0.98-2.69,1.57-5.55,1.46C98.04,25.3,94.18,23.52,94.18,23.52z"></path> <path class="st0" d="M105.44,11.04c0,0-1.79,3.34-1.24,6.36c0.51,2.82,1.59,4.98,2.62,5.11c-0.69-1.97-1.21-8.47-1.09-8.5 c0.12-0.02,1.55,6.49,1.71,8.38c0.92-0.48,1.18-2.88,0.67-5.7C107.74,14.62,105.44,11.04,105.44,11.04z"></path> <path class="st0" d="M93.73,18.82c0,0,1.56-1.62,3.37-1.87c1.68-0.23,3.1-0.02,3.37,0.54c-1.24-0.03-5.01,0.87-5,0.95 c0.01,0.07,3.95-0.32,5.05-0.57c-0.1,0.61-1.41,1.19-3.09,1.43C96.17,19.46,93.73,18.82,93.73,18.82z"></path> <path class="st0" d="M99.17,10.85c0,0-0.7,2.14-0.07,3.85c0.59,1.59,1.44,2.75,2.06,2.72c-0.61-1.08-1.58-4.83-1.51-4.86 c0.07-0.03,1.58,3.63,1.86,4.72c0.49-0.38,0.39-1.81-0.2-3.4C100.88,12.7,99.17,10.85,99.17,10.85z"></path> <path class="st0" d="M83.66,17.17c0,0,2.37-2.95,5.37-3.63c2.79-0.64,5.21-0.48,5.73,0.42c-2.09,0.13-8.27,2.2-8.24,2.32 s6.57-1.11,8.38-1.7c-0.08,1.04-2.19,2.21-4.98,2.85C87.85,17.88,83.66,17.17,83.66,17.17z"></path> <path class="st0" d="M91.31,2.2c0,0-0.86,3.69,0.45,6.47c1.22,2.59,2.83,4.4,3.86,4.26C94.43,11.2,92.25,5.05,92.36,5 s3.18,5.86,3.82,7.65c0.77-0.71,0.39-3.09-0.83-5.68C94.45,5.06,91.31,2.2,91.31,2.2z"></path> <path class="st0" d="M82.64,12.74c0,0,1.08-1.97,2.77-2.68c1.57-0.66,2.99-0.82,3.39-0.35c-1.21,0.29-4.61,2.14-4.58,2.21 s3.73-1.33,4.72-1.86c0.06,0.62-1.05,1.52-2.62,2.18C85.16,12.73,82.64,12.74,82.64,12.74z"></path> <path class="st0" d="M85.2,3.63c0,0-0.12,2.25,0.93,3.74c0.98,1.39,2.11,2.28,2.7,2.09c-0.87-0.89-2.78-4.26-2.72-4.3 s2.46,3.1,3.02,4.08c0.37-0.49-0.09-1.85-1.07-3.23C87.33,4.98,85.2,3.63,85.2,3.63z"></path> <path class="st0" d="M109.42,26.18c-5.62-7.35-12.49-13.06-20.85-16.83v0.7c7.96,3.73,14.85,9.33,20.35,16.51 c9.01,11.76,12.83,26.33,10.88,41.02c-3.65,27.46-27.28,48.18-54.95,48.18c-2.45,0-4.94-0.16-7.38-0.49 c-14.69-1.95-27.74-9.5-36.75-21.27C11.71,82.24,7.93,67.67,9.88,52.99c2.57-19.4,15.38-35.41,32.1-43.16V9.14 C24.06,16.92,11.86,33.19,9.25,52.9c-1.97,14.86,1.9,29.59,11.01,41.49s22.28,19.54,37.13,21.51c2.47,0.33,4.96,0.49,7.44,0.49 c27.98,0,51.91-20.95,55.6-48.72C122.4,52.81,118.53,38.08,109.42,26.18z"></path> </g> </g> <g> <path class="st2" d="M36.89,59.77h-3.68v-5.53h-4.26v5.53h-3.68V46.2h3.68v5.03h4.26V46.2h3.68V59.77z"></path> <path class="st2" d="M39.83,59.77V46.2h3.68v13.56L39.83,59.77L39.83,59.77z"></path> <path class="st2" d="M51.89,51.82h5.85v7.31c-1.59,0.54-3.34,0.82-5.24,0.82c-2.09,0-3.71-0.61-4.85-1.82s-1.71-2.94-1.71-5.19 c0-2.19,0.62-3.89,1.87-5.11s3-1.83,5.25-1.83c0.85,0,1.66,0.08,2.42,0.24c0.76,0.16,1.42,0.37,1.98,0.61l-1.16,2.88 c-0.98-0.48-2.05-0.72-3.22-0.72c-1.07,0-1.9,0.35-2.48,1.04c-0.58,0.7-0.88,1.69-0.88,2.98c0,1.27,0.26,2.23,0.79,2.9 c0.53,0.67,1.29,1,2.29,1c0.54,0,1.04-0.05,1.5-0.16v-2.12h-2.42L51.89,51.82L51.89,51.82z"></path> <path class="st2" d="M72.13,59.77h-3.68v-5.53h-4.26v5.53H60.5V46.2h3.68v5.03h4.26V46.2h3.68L72.13,59.77L72.13,59.77z"></path> <path class="st2" d="M83.11,59.77h-8.05V46.2h8.05v2.94h-4.39v2.13h4.06v2.94h-4.06v2.56h4.39V59.77z"></path> <path class="st2" d="M94.36,55.65c0,0.84-0.21,1.59-0.64,2.24s-1.04,1.16-1.85,1.52c-0.8,0.36-1.75,0.54-2.83,0.54 c-0.9,0-1.66-0.06-2.27-0.19c-0.61-0.13-1.25-0.35-1.91-0.66v-3.27c0.7,0.36,1.43,0.64,2.18,0.84s1.45,0.3,2.08,0.3 c0.54,0,0.94-0.09,1.2-0.28c0.25-0.19,0.38-0.43,0.38-0.73c0-0.19-0.05-0.35-0.15-0.49c-0.1-0.14-0.27-0.28-0.49-0.42 c-0.23-0.14-0.83-0.43-1.8-0.87c-0.88-0.4-1.55-0.79-1.99-1.17c-0.44-0.38-0.77-0.81-0.98-1.3c-0.21-0.49-0.32-1.07-0.32-1.73 c0-1.25,0.46-2.22,1.36-2.92c0.91-0.7,2.16-1.05,3.75-1.05c1.4,0,2.84,0.32,4.3,0.97l-1.12,2.83c-1.27-0.58-2.36-0.87-3.29-0.87 c-0.48,0-0.82,0.08-1.04,0.25s-0.32,0.37-0.32,0.62c0,0.27,0.14,0.5,0.41,0.71c0.27,0.21,1.02,0.59,2.24,1.15 c1.17,0.53,1.98,1.09,2.44,1.69C94.13,53.97,94.36,54.73,94.36,55.65z"></path> <path class="st2" d="M102.44,59.77h-3.66V49.2h-3.31v-3h10.28v3h-3.3L102.44,59.77L102.44,59.77z"></path> <path class="st2" d="M39.01,69.83v4.94h-3.66V61.2h4.44c3.69,0,5.53,1.34,5.53,4.01c0,1.57-0.77,2.79-2.3,3.65l3.95,5.91h-4.16 l-2.88-4.94H39.01z M39.01,67.07h0.69c1.28,0,1.92-0.57,1.92-1.7c0-0.93-0.63-1.4-1.88-1.4h-0.72L39.01,67.07L39.01,67.07z"></path> <path class="st2" d="M56.53,74.77l-0.67-2.54h-4.41l-0.69,2.54h-4.03l4.43-13.62h4.89l4.48,13.62H56.53z M55.1,69.22l-0.58-2.23 c-0.14-0.49-0.3-1.13-0.5-1.92s-0.32-1.35-0.39-1.69c-0.06,0.32-0.17,0.84-0.33,1.56c-0.16,0.72-0.53,2.15-1.09,4.28H55.1z"></path> <path class="st2" d="M67.99,74.77h-3.66V64.2h-3.31v-3H71.3v3H68L67.99,74.77L67.99,74.77z"></path> <path class="st2" d="M81.28,74.77h-8.05V61.2h8.05v2.94h-4.39v2.13h4.06v2.94h-4.06v2.56h4.39V74.77z"></path> <path class="st2" d="M95.17,67.7c0,2.26-0.62,4.01-1.87,5.23s-3,1.84-5.26,1.84h-4.39V61.2h4.69c2.18,0,3.86,0.56,5.04,1.67 S95.17,65.59,95.17,67.7z M91.37,67.83c0-1.24-0.25-2.17-0.74-2.76c-0.49-0.6-1.24-0.9-2.24-0.9h-1.07v7.6h0.82 c1.11,0,1.93-0.32,2.45-0.97S91.37,69.16,91.37,67.83z"></path> </g> <g> <path class="st0" d="M29.83,80.6c0,0.5-0.18,0.9-0.54,1.18c-0.36,0.29-0.86,0.43-1.5,0.43s-1.16-0.1-1.57-0.3v-0.87 c0.26,0.12,0.53,0.22,0.82,0.29s0.56,0.1,0.81,0.1c0.37,0,0.63-0.07,0.81-0.21s0.26-0.33,0.26-0.56c0-0.21-0.08-0.39-0.24-0.54 s-0.49-0.32-0.99-0.52c-0.51-0.21-0.88-0.45-1.09-0.71c-0.21-0.27-0.32-0.59-0.32-0.97c0-0.47,0.17-0.84,0.5-1.11 s0.78-0.41,1.35-0.41c0.54,0,1.08,0.12,1.61,0.35l-0.29,0.75c-0.5-0.21-0.95-0.32-1.34-0.32c-0.3,0-0.52,0.07-0.68,0.2 s-0.23,0.3-0.23,0.51c0,0.15,0.03,0.27,0.09,0.38c0.06,0.1,0.16,0.2,0.31,0.29s0.4,0.21,0.76,0.37c0.41,0.17,0.72,0.33,0.91,0.48 s0.33,0.32,0.42,0.51C29.79,80.12,29.83,80.34,29.83,80.6z"></path> <path class="st0" d="M32.87,82.13h-0.92v-4.85h-1.66v-0.79h4.24v0.79h-1.66V82.13z"></path> <path class="st0" d="M38.9,82.13l-0.56-1.57h-2.16l-0.55,1.57h-0.97l2.11-5.67h1l2.11,5.67H38.9z M38.09,79.77l-0.53-1.54 c-0.04-0.1-0.09-0.27-0.16-0.49s-0.12-0.38-0.14-0.49c-0.07,0.32-0.17,0.66-0.3,1.04l-0.51,1.47L38.09,79.77L38.09,79.77z"></path> <path class="st0" d="M41.54,82.13h-0.92v-5.64h3.18v0.78h-2.27v1.76h2.13v0.78h-2.13L41.54,82.13L41.54,82.13z"></path> <path class="st0" d="M45.75,82.13h-0.92v-5.64h3.18v0.78h-2.27v1.76h2.13v0.78h-2.13L45.75,82.13L45.75,82.13z"></path> <path class="st0" d="M49.04,82.13v-5.64h0.92v5.64H49.04z"></path> <path class="st0" d="M56.15,82.13h-1.13l-2.78-4.5h-0.03l0.02,0.25c0.04,0.48,0.05,0.92,0.05,1.31v2.93h-0.84v-5.64h1.12l2.77,4.47 h0.02c0-0.06-0.02-0.27-0.03-0.65c-0.02-0.37-0.02-0.66-0.02-0.87v-2.96h0.85V82.13z"></path> <path class="st0" d="M59.95,79.07h2.08v2.83c-0.34,0.11-0.67,0.19-0.98,0.24c-0.31,0.05-0.65,0.07-1.01,0.07 c-0.85,0-1.51-0.25-1.98-0.76c-0.46-0.51-0.69-1.22-0.69-2.14c0-0.91,0.26-1.62,0.78-2.13c0.52-0.51,1.24-0.77,2.16-0.77 c0.59,0,1.15,0.11,1.68,0.34l-0.32,0.77c-0.46-0.21-0.92-0.32-1.37-0.32c-0.6,0-1.08,0.19-1.43,0.57s-0.52,0.9-0.52,1.55 c0,0.69,0.16,1.21,0.47,1.57s0.77,0.54,1.36,0.54c0.3,0,0.62-0.04,0.96-0.11v-1.46h-1.17v-0.79H59.95z"></path> <path class="st0" d="M67.84,77.2c-0.53,0-0.95,0.19-1.25,0.56c-0.3,0.38-0.46,0.89-0.46,1.56c0,0.69,0.15,1.22,0.44,1.57 c0.29,0.36,0.71,0.53,1.27,0.53c0.24,0,0.47-0.02,0.69-0.07s0.46-0.11,0.7-0.18v0.79c-0.44,0.17-0.95,0.25-1.51,0.25 c-0.83,0-1.46-0.25-1.9-0.75s-0.66-1.22-0.66-2.15c0-0.59,0.11-1.1,0.32-1.54s0.53-0.78,0.93-1.01c0.41-0.23,0.88-0.35,1.43-0.35 c0.58,0,1.11,0.12,1.6,0.36l-0.33,0.77c-0.19-0.09-0.39-0.17-0.61-0.24C68.3,77.23,68.07,77.2,67.84,77.2z"></path> <path class="st0" d="M75.46,79.3c0,0.92-0.23,1.63-0.69,2.14s-1.11,0.76-1.95,0.76c-0.85,0-1.51-0.25-1.96-0.76 s-0.69-1.22-0.69-2.16s0.23-1.65,0.69-2.15s1.12-0.75,1.97-0.75c0.84,0,1.49,0.25,1.95,0.76C75.23,77.67,75.46,78.38,75.46,79.3z M71.15,79.3c0,0.7,0.14,1.22,0.42,1.58s0.7,0.54,1.25,0.54s0.96-0.18,1.24-0.53s0.42-0.88,0.42-1.59c0-0.69-0.14-1.22-0.42-1.57 c-0.28-0.36-0.69-0.54-1.24-0.54c-0.55,0-0.97,0.18-1.25,0.54C71.29,78.08,71.15,78.61,71.15,79.3z"></path> <path class="st0" d="M79.11,82.13l-1.64-4.71h-0.03c0.04,0.7,0.07,1.36,0.07,1.97v2.75h-0.84V76.5h1.3l1.57,4.49h0.02l1.61-4.49 h1.3v5.64h-0.89v-2.79c0-0.28,0.01-0.65,0.02-1.1c0.01-0.45,0.03-0.72,0.04-0.82h-0.03l-1.7,4.71h-0.8V82.13z"></path> <path class="st0" d="M87.7,78.19c0,0.59-0.19,1.04-0.58,1.35s-0.94,0.47-1.65,0.47h-0.59v2.11h-0.92v-5.64h1.62 c0.71,0,1.23,0.14,1.58,0.43C87.53,77.21,87.7,77.63,87.7,78.19z M84.89,79.24h0.49c0.47,0,0.82-0.08,1.04-0.25 c0.22-0.16,0.33-0.42,0.33-0.77c0-0.32-0.1-0.57-0.3-0.73c-0.2-0.16-0.51-0.24-0.93-0.24h-0.64v1.99H84.89z"></path> <path class="st0" d="M92.33,82.13l-0.56-1.57h-2.16l-0.55,1.57h-0.97l2.11-5.67h1l2.11,5.67H92.33z M91.53,79.77L91,78.23 c-0.04-0.1-0.09-0.27-0.16-0.49c-0.07-0.22-0.11-0.38-0.14-0.49c-0.07,0.32-0.17,0.66-0.3,1.04l-0.51,1.47L91.53,79.77L91.53,79.77 z"></path> <path class="st0" d="M98.76,82.13h-1.13l-2.78-4.5h-0.03l0.02,0.25c0.04,0.48,0.05,0.92,0.05,1.31v2.93h-0.84v-5.64h1.12l2.77,4.47 h0.02c0-0.06-0.02-0.27-0.03-0.65c-0.02-0.37-0.02-0.66-0.02-0.87v-2.96h0.85C98.76,76.47,98.76,82.13,98.76,82.13z"></path> <path class="st0" d="M101.84,79.06l1.34-2.57h1l-1.88,3.46v2.19h-0.93v-2.16l-1.87-3.49h1L101.84,79.06z"></path> </g> <g id="XMLID_1_"> <path id="path2998" class="st3" d="M53.06,92.07h-5.49v1.63h3.89c-0.19,2.28-2.09,3.26-3.88,3.26c-2.29,0-4.3-1.8-4.3-4.33 c0-2.46,1.91-4.36,4.3-4.36c1.85,0,2.93,1.18,2.93,1.18l1.14-1.18c0,0-1.46-1.63-4.13-1.63c-3.4,0-6.03,2.87-6.03,5.97 c0,3.04,2.47,6,6.11,6c3.2,0,5.55-2.19,5.55-5.44C53.16,92.46,53.06,92.06,53.06,92.07L53.06,92.07z"></path> <path id="path3000" class="st4" d="M57.55,90.89c-2.25,0-3.86,1.76-3.86,3.81c0,2.08,1.56,3.88,3.89,3.88 c2.11,0,3.83-1.61,3.83-3.83C61.41,92.2,59.4,90.89,57.55,90.89L57.55,90.89z M57.58,92.4c1.11,0,2.16,0.9,2.16,2.34 c0,1.41-1.04,2.33-2.16,2.33c-1.23,0-2.19-0.98-2.19-2.34C55.38,93.39,56.33,92.4,57.58,92.4L57.58,92.4z"></path> <path id="path3005" class="st5" d="M65.96,90.89c-2.25,0-3.86,1.76-3.86,3.81c0,2.08,1.56,3.88,3.89,3.88 c2.11,0,3.83-1.61,3.83-3.83C69.82,92.2,67.81,90.89,65.96,90.89L65.96,90.89z M65.98,92.4c1.11,0,2.16,0.9,2.16,2.34 c0,1.41-1.04,2.33-2.16,2.33c-1.23,0-2.19-0.98-2.19-2.34C63.78,93.39,64.74,92.4,65.98,92.4L65.98,92.4z"></path> <path id="path3007" class="st3" d="M74.2,90.89c-2.07,0-3.69,1.81-3.69,3.84c0,2.31,1.88,3.85,3.65,3.85c1.1,0,1.68-0.43,2.11-0.93 v0.76c0,1.33-0.81,2.12-2.02,2.12c-1.17,0-1.76-0.87-1.97-1.37l-1.48,0.62c0.52,1.11,1.58,2.26,3.46,2.26 c2.05,0,3.62-1.29,3.62-4.01v-6.91h-1.61v0.65C75.78,91.24,75.1,90.89,74.2,90.89L74.2,90.89z M74.35,92.4 c1.01,0,2.05,0.87,2.05,2.34c0,1.5-1.04,2.33-2.08,2.33c-1.1,0-2.13-0.89-2.13-2.31C72.2,93.28,73.27,92.4,74.35,92.4L74.35,92.4z"></path> <path id="path3011" class="st4" d="M85.05,90.88c-1.95,0-3.59,1.55-3.59,3.84c0,2.42,1.82,3.86,3.77,3.86 c1.63,0,2.62-0.89,3.22-1.69l-1.33-0.88c-0.34,0.54-0.92,1.06-1.88,1.06c-1.08,0-1.58-0.59-1.89-1.17l5.15-2.14l-0.27-0.63 C87.75,91.91,86.59,90.88,85.05,90.88L85.05,90.88z M85.12,92.36c0.7,0,1.21,0.37,1.42,0.82l-3.44,1.44 C82.95,93.51,84.01,92.36,85.12,92.36L85.12,92.36z"></path> <path id="path3015" class="st6" d="M79.01,98.35h1.69V87.02h-1.69V98.35z"></path> </g> <g> <path class="st0" d="M36.63,34.61h-1.1v-5.76h-1.97v-0.94h5.04v0.94h-1.97V34.61z"></path> <path class="st0" d="M44.91,34.61h-1.1v-3.02h-3.09v3.02h-1.1v-6.7h1.1v2.74h3.09v-2.74h1.1V34.61z"></path> <path class="st0" d="M50.47,34.61h-3.79v-6.7h3.79v0.93h-2.7v1.82h2.53v0.92h-2.53v2.1h2.7V34.61z"></path> <path class="st0" d="M55.45,31.93v2.68h-1.1v-6.7h1.89c0.86,0,1.5,0.16,1.92,0.49c0.42,0.32,0.62,0.81,0.62,1.47 c0,0.83-0.43,1.43-1.3,1.78l1.89,2.97h-1.25l-1.6-2.68H55.45z M55.45,31.03h0.76c0.51,0,0.88-0.09,1.11-0.28 c0.23-0.19,0.34-0.47,0.34-0.84c0-0.38-0.12-0.65-0.37-0.82s-0.62-0.25-1.12-0.25h-0.72V31.03z"></path> <path class="st0" d="M64.14,34.61h-3.79v-6.7h3.79v0.93h-2.7v1.82h2.53v0.92h-2.53v2.1h2.7V34.61z"></path> <path class="st0" d="M68.33,30.98h2.47v3.36c-0.4,0.13-0.79,0.22-1.16,0.28c-0.37,0.05-0.77,0.08-1.2,0.08 c-1.01,0-1.8-0.3-2.35-0.9c-0.55-0.6-0.83-1.45-0.83-2.54c0-1.08,0.31-1.92,0.93-2.53c0.62-0.61,1.47-0.91,2.56-0.91 c0.7,0,1.36,0.13,1.99,0.4l-0.38,0.91c-0.54-0.25-1.09-0.38-1.63-0.38c-0.71,0-1.28,0.22-1.7,0.67s-0.62,1.06-0.62,1.84 c0,0.82,0.19,1.44,0.56,1.87c0.37,0.43,0.91,0.64,1.62,0.64c0.35,0,0.73-0.04,1.14-0.13v-1.73h-1.39V30.98z"></path> <path class="st0" d="M72.41,34.61v-6.7h1.1v6.7H72.41z"></path> <path class="st0" d="M81.22,31.25c0,1.09-0.27,1.94-0.82,2.54c-0.54,0.6-1.32,0.91-2.32,0.91c-1.01,0-1.79-0.3-2.33-0.9 c-0.54-0.6-0.81-1.45-0.81-2.56s0.27-1.96,0.82-2.55c0.54-0.59,1.32-0.89,2.33-0.89c1,0,1.77,0.3,2.31,0.9S81.22,30.16,81.22,31.25 z M76.11,31.25c0,0.83,0.17,1.45,0.5,1.88c0.33,0.43,0.83,0.64,1.48,0.64c0.65,0,1.14-0.21,1.47-0.63c0.33-0.42,0.5-1.05,0.5-1.88 c0-0.82-0.16-1.45-0.49-1.87c-0.33-0.42-0.82-0.64-1.47-0.64c-0.66,0-1.15,0.21-1.49,0.64C76.27,29.8,76.11,30.43,76.11,31.25z"></path> <path class="st0" d="M88.25,34.61H86.9l-3.3-5.34h-0.04l0.02,0.3c0.04,0.57,0.06,1.09,0.06,1.56v3.48h-1v-6.7h1.33l3.29,5.31h0.03 c-0.01-0.07-0.02-0.33-0.04-0.77c-0.02-0.44-0.03-0.79-0.03-1.03v-3.51h1V34.61z"></path> <path class="st0" d="M90.76,27.91l0.07,0.1c-0.16,0.64-0.43,1.37-0.81,2.2h-0.78c0.21-0.88,0.36-1.65,0.46-2.3H90.76z"></path> <path class="st0" d="M95.69,32.79c0,0.6-0.22,1.06-0.65,1.4c-0.43,0.34-1.03,0.51-1.78,0.51s-1.38-0.12-1.86-0.35v-1.04 c0.31,0.14,0.63,0.26,0.97,0.34s0.66,0.12,0.96,0.12c0.44,0,0.75-0.08,0.96-0.25c0.21-0.16,0.31-0.39,0.31-0.66 c0-0.25-0.09-0.46-0.28-0.64c-0.19-0.17-0.58-0.38-1.17-0.62c-0.61-0.25-1.04-0.53-1.29-0.85c-0.25-0.32-0.38-0.7-0.38-1.15 c0-0.56,0.2-1,0.6-1.32c0.4-0.32,0.93-0.48,1.6-0.48c0.64,0,1.28,0.14,1.92,0.42l-0.35,0.89c-0.6-0.25-1.13-0.38-1.6-0.38 c-0.36,0-0.62,0.08-0.81,0.23c-0.18,0.15-0.28,0.36-0.28,0.61c0,0.17,0.04,0.32,0.11,0.45c0.07,0.12,0.19,0.24,0.36,0.35 c0.17,0.11,0.47,0.26,0.91,0.44c0.49,0.2,0.85,0.4,1.08,0.57c0.23,0.18,0.4,0.38,0.51,0.6C95.64,32.23,95.69,32.49,95.69,32.79z"></path> </g> </svg> 