<?xml version="1.0" encoding="UTF-8"?> <!-- Generator: Adobe Illustrator 25.3.1, SVG Export Plug-In . SVG Version: 6.00 Build 0) --> <svg xmlns="http://www.w3.org/2000/svg" xmlns:xlink="http://www.w3.org/1999/xlink" version="1.1" id="_x2014_ÎÓÈ_x5F_1" x="0px" y="0px" viewBox="0 0 3218.25 2232.48" style="enable-background:new 0 0 3218.25 2232.48;" xml:space="preserve"> <style type="text/css"> .st0{fill:#FDB614;} .st1{fill:#4EBA6F;} .st2{fill:#23346C;} </style> <polygon class="st0" points="908.45,1685.47 77.32,1151.38 763.04,218.42 1463.19,664.91 1267.97,1042.76 1789.09,968.63 1934.81,826.78 1998.6,1161.66 1820.08,1083.68 1014.76,1526.24 "></polygon> <path class="st1" d="M2530.14,1428.4l26.13-110.17l87.91-80.62h96.64l85.05,20.7l21.26,32.54l-38.66,96.65l-46.39,57.72 l-73.45,28.57l-48.32,8.73l-70.74-2.72C2569.58,1479.8,2566.87,1499.92,2530.14,1428.4z"></path> <g> <path class="st2" d="M3169.49,2154.18h-151.32c0.19-1.2,0.29-2.43,0.29-3.68c0-80.53-65.52-146.05-146.05-146.05 c-18.71,0-36.88,3.5-53.77,10.18c-10.59-28.82-28.55-54.72-52.27-74.84c-32.23-27.34-73.28-42.39-115.59-42.39 c-3.86,0-7.69,0.11-11.49,0.31c-20.44-54.51-70.15-94.84-129.89-101.75c-0.26-55.81-0.06-212.85,0.39-222.6 c1.91-40.21,14.21-75.93,36.59-106.19c0.95-1.03,1.79-2.14,2.52-3.33c10.82-13.99,24.05-27.05,39.32-38.82 c46.65-35.96,95.82-47.32,97.85-47.77c5.59-1.24,10.36-4.58,13.44-9.4c3.08-4.83,4.09-10.56,2.85-16.16 c-2.05-9.26-10.09-16.15-19.54-16.76c-2.01-0.13-4.04,0.03-6.02,0.46c-2.43,0.54-60.25,13.67-114.75,55.68 c-1.32,1.02-2.63,2.04-3.93,3.08c10.2-54.22,32.71-92.6,67.09-114.29c23.29-14.68,52.61-22.12,87.14-22.12 c5.39,0,10.98,0.18,16.62,0.55c9.87,0.63,20.11,1.84,30.42,3.59c25.78,4.37,47.67,11.19,61.21,16.03 c-0.81,9.2-2.57,22.76-6.41,38.14c-6.68,26.74-21.18,64.85-52.35,94.55c-34.8,33.17-83.83,49.98-145.72,49.98 c-7.7,0-15.7-0.26-23.79-0.78c-11.88-0.75-22.02,8.31-22.77,20.02c-0.76,11.8,8.22,22.01,20.02,22.77 c9.02,0.58,17.97,0.87,26.6,0.87c73.34,0,132.36-20.86,175.42-62c17.2-16.43,31.72-36.09,43.16-58.42 c9.03-17.62,16.18-36.96,21.23-57.45c8.55-34.67,8.2-61.33,8.18-62.48c-0.16-8.32-5.18-15.86-12.81-19.22 c-1.5-0.66-37.31-16.22-84.83-24.27c-11.98-2.03-23.84-3.43-35.26-4.16c-6.39-0.41-12.79-0.62-19.01-0.62 c-8.83,0-17.51,0.42-25.81,1.24c-31.88,3.18-60.18,12.44-84.12,27.53c-57.37,36.17-88.62,104.01-92.9,201.69 c-7.96,11.23-14.9,23.15-20.65,35.47c-6.16,13.21-15.99,47.13-16.4,48.57c-0.12,0.4-0.21,0.8-0.28,1.21 c-0.02,0.11-1.89,10.76-3.55,21.45c-0.99,6.36-1.71,11.52-2.14,15.33c-0.42,3.68-0.81,7.09-0.33,10.16 c0.02,24.6,0.12,167.55,0.39,219.33c-56.93,8.93-103.88,48.31-123.6,100.91c-3.8-0.21-7.63-0.32-11.49-0.32 c-42.32,0-83.37,15.06-115.59,42.39c-23.72,20.12-41.69,46.02-52.27,74.84c-16.89-6.68-35.06-10.18-53.77-10.18 c-80.53,0-146.05,65.52-146.05,146.05c0,1.25,0.1,2.48,0.29,3.68H1812.7c-13.04,0-23.61,10.57-23.61,23.62 c0,13.04,10.57,23.61,23.61,23.61h897.4c13.04,0,23.61-10.57,23.61-23.62c0-13.04-10.57-23.61-23.61-23.61h-699.43 c0.19-1.2,0.29-2.43,0.29-3.68c0-54.49,44.33-98.82,98.82-98.82c19.79,0,38.68,5.78,54.77,16.53c0.46,0.35,0.94,0.67,1.43,0.98 c4.84,3.36,9.42,7.17,13.67,11.43c9.22,9.22,24.17,9.22,33.4,0s9.22-24.17,0-33.4c-2.61-2.61-5.31-5.11-8.08-7.5 c15.96-55.86,67.09-95.1,126.44-95.1c0.57,0,1.13,0.01,1.7,0.02c-0.15,2.8-0.23,5.62-0.23,8.46c0,12.88,10.44,23.33,23.33,23.33 c12.88,0,23.33-10.44,23.33-23.33c0-61.52,50.05-111.56,111.56-111.56c61.52,0,111.56,50.05,111.56,111.56 c0,20.34-5.52,40.24-15.96,57.55c-6.66,11.03-3.11,25.37,7.92,32.02c3.77,2.28,7.93,3.36,12.03,3.36c7.9,0,15.61-4.02,19.99-11.28 c14.83-24.58,22.68-52.81,22.68-81.65c0-2.84-0.08-5.66-0.23-8.46c0.57-0.01,1.13-0.02,1.7-0.02c59.35,0,110.48,39.24,126.44,95.1 c-2.77,2.39-5.47,4.89-8.08,7.5c-9.22,9.22-9.22,24.17,0,33.4c9.22,9.22,24.17,9.22,33.39,0c4.26-4.26,8.84-8.07,13.68-11.43 c0.49-0.31,0.96-0.63,1.42-0.98c16.08-10.76,34.98-16.53,54.77-16.53c54.49,0,98.82,44.33,98.82,98.82c0,1.25,0.1,2.48,0.29,3.68 l-115.81,0c-13.04,0-23.62,10.57-23.62,23.61c0,13.04,10.57,23.62,23.62,23.62h313.78c13.04,0,23.61-10.57,23.61-23.61 C3193.1,2164.75,3182.53,2154.18,3169.49,2154.18z"></path> <path class="st2" d="M1980.75,1195.15c2.04,1.41,4.27,2.5,6.63,3.22c1.32,0.41,2.69,0.7,4.07,0.87c0.97,0.12,1.96,0.19,2.94,0.19 h0.07c0.03,0,0.06,0,0.09,0h0.04c13.19-0.07,23.9-10.82,23.9-24.03c0-1.47-0.13-2.95-0.39-4.3l-52.16-370.32 c-1.33-9.46-8.13-17.23-17.33-19.79c-2.11-0.59-4.28-0.89-6.46-0.89c-7.25,0-14.04,3.22-18.62,8.84l-128.22,157.15l-477.99,65.7 l179.19-329.46c5.97-10.97,2.43-24.87-8.06-31.66L1323.24,543.8c4.2-67.71-3.86-133.05-23.98-194.23 c-22.37-68.03-58.71-128-108.02-178.24c-49.31-50.24-108.59-87.69-176.2-111.32C961.66,41.36,904.68,31.9,845.71,31.9 c-12.62,0-25.52,0.44-38.32,1.3c-72.44,4.9-144.18,23.37-213.22,54.89c-71.29,32.55-136.59,77.68-194.11,134.13 c-47.22,46.35-87.16,98.48-118.72,154.95c-30.57,54.7-52.76,112.49-65.95,171.77c-13.09,58.83-17.02,117.71-11.67,175.03 c4.97,53.32,17.91,104.23,38.46,151.36L53.81,1132.59c-3.89,5.31-5.44,12.08-4.24,18.55c1.19,6.48,5.05,12.24,10.58,15.82 l845.73,547.19c3.9,2.52,8.41,3.86,13.05,3.86c2,0,3.99-0.25,5.93-0.74c6.46-1.64,11.99-5.95,15.18-11.8l78.5-144.33l801.55-477.44 L1980.75,1195.15z M1926.02,861.92l36.96,262.42l-119.71-83.05l-9.97-65.72L1926.02,861.92z M433.73,256.52 C547.93,144.43,697.96,80.14,845.37,80.14c121.89,0,232.54,44.34,311.57,124.86c78.03,79.5,120.33,188.89,119.3,308.39 L773.45,188.09c-3.9-2.52-8.41-3.86-13.04-3.86c-7.64,0-14.9,3.68-19.4,9.83L275.72,829.52 C209.62,644.22,272.83,414.46,433.73,256.52z M1063.54,1478.38l10.33-18.99c3.07-5.64,3.75-12.13,1.94-18.29 c-1.82-6.16-5.93-11.23-11.56-14.3c-3.52-1.91-7.48-2.93-11.46-2.93c-8.82,0-16.92,4.81-21.13,12.55L910.2,1659.72l-802.58-519.27 l181.46-247.83c0.11-0.15,0.23-0.3,0.32-0.44l476.98-651.42l677.26,438.19l-306.21,562.98c-3.07,5.64-3.75,12.13-1.94,18.29 c1.82,6.16,5.92,11.23,11.56,14.3c3.52,1.91,7.48,2.93,11.46,2.93c8.82,0,16.92-4.81,21.13-12.55l109.14-200.65l498.95-68.58 l7.15,47.09L1063.54,1478.38z"></path> <path class="st2" d="M792.04,485.63c-4.08-2.89-8.88-4.42-13.86-4.42c-7.8,0-15.14,3.8-19.63,10.15l-362.43,512.12 c-7.65,10.82-5.08,25.84,5.73,33.5c4.08,2.89,8.88,4.42,13.86,4.42c7.8,0,15.14-3.79,19.63-10.15l362.43-512.12 C805.42,508.31,802.85,493.28,792.04,485.63z"></path> <path class="st2" d="M2069.76,882.44c4.8,0,9.44-1.42,13.43-4.12c1.33-0.9,2.66-1.78,4-2.66c5.37-3.51,9.06-8.9,10.38-15.18 c1.32-6.28,0.11-12.7-3.4-18.07c-4.45-6.82-11.98-10.89-20.14-10.89c-4.66,0-9.2,1.35-13.12,3.91c-1.55,1.01-3.09,2.04-4.63,3.07 c-10.98,7.42-13.88,22.38-6.46,33.36C2054.3,878.48,2061.75,882.44,2069.76,882.44z"></path> <path class="st2" d="M2255.3,826.51c3.35,0.03,6.74,0.11,10.06,0.24c0.33,0.01,0.66,0.02,0.99,0.02 c12.93,0,23.47-10.13,23.99-23.05c0.54-13.24-9.8-24.45-23.03-24.99c-3.85-0.16-7.76-0.25-11.62-0.28l-0.21,0 c-13.14,0-23.92,10.69-24.02,23.84C2231.36,815.54,2242.05,826.41,2255.3,826.51z"></path> <path class="st2" d="M2347.57,841.57c3.18,1.04,6.39,2.16,9.52,3.3c2.66,0.97,5.44,1.47,8.25,1.47c10.05,0,19.12-6.34,22.57-15.78 c2.21-6.03,1.93-12.55-0.77-18.38c-2.7-5.82-7.51-10.24-13.54-12.45c-3.66-1.34-7.37-2.62-11.04-3.83c-2.44-0.8-4.96-1.2-7.5-1.2 c-10.41,0-19.58,6.65-22.83,16.54C2328.11,823.84,2334.99,837.44,2347.57,841.57z"></path> <path class="st2" d="M2540.46,1032.9c1.07,3.17,2.1,6.39,3.05,9.58c3.03,10.08,12.49,17.12,23,17.12c2.34,0,4.67-0.34,6.93-1.02 c12.69-3.81,19.91-17.24,16.09-29.93c-1.12-3.72-2.31-7.46-3.54-11.1c-3.3-9.78-12.45-16.35-22.77-16.35 c-2.61,0-5.19,0.43-7.68,1.27C2543,1006.68,2536.23,1020.34,2540.46,1032.9z"></path> <path class="st2" d="M2503.07,958.21c4.49,6.52,11.89,10.41,19.82,10.41c4.87,0,9.57-1.46,13.6-4.23 c5.29-3.64,8.84-9.12,10.01-15.43c1.17-6.31-0.19-12.7-3.83-17.99c-2.18-3.17-4.45-6.35-6.75-9.48 c-4.51-6.12-11.75-9.77-19.35-9.77c-5.16,0-10.08,1.62-14.25,4.69c-5.17,3.81-8.54,9.4-9.5,15.75s0.61,12.69,4.42,17.85 C2499.22,952.72,2501.18,955.47,2503.07,958.21z"></path> <path class="st2" d="M2430.83,884.15c2.7,1.96,5.41,3.99,8.05,6.04c4.26,3.31,9.35,5.06,14.73,5.06c7.48,0,14.4-3.38,18.99-9.29 c3.94-5.07,5.67-11.37,4.87-17.74c-0.8-6.37-4.03-12.04-9.1-15.98c-3.05-2.37-6.19-4.72-9.32-7c-4.13-3-9-4.58-14.09-4.58 c-7.68,0-14.96,3.71-19.47,9.92C2417.7,861.31,2420.1,876.37,2430.83,884.15z"></path> <path class="st2" d="M2155.64,841.17c2.41,0,4.81-0.37,7.13-1.09c3.19-0.99,6.44-1.94,9.65-2.82c12.78-3.5,20.33-16.75,16.82-29.53 c-2.85-10.41-12.38-17.68-23.16-17.68c-2.14,0-4.28,0.29-6.36,0.86c-3.75,1.03-7.51,2.13-11.19,3.27 c-6.13,1.9-11.15,6.08-14.14,11.76c-2.99,5.68-3.59,12.18-1.68,18.31C2135.84,834.38,2145.06,841.17,2155.64,841.17z"></path> <path class="st2" d="M2579.93,1100.77c-13.25,0.21-23.86,11.15-23.65,24.4c0.03,1.6,0.04,3.2,0.04,4.81 c0,13.25,10.78,24.03,24.03,24.03s24.03-10.78,24.03-24.03c0-1.86-0.01-3.71-0.04-5.56c-0.2-13.04-11-23.65-24.06-23.65 L2579.93,1100.77z"></path> <path class="st2" d="M2164.76,965.8c-1.87-0.03-3.75-0.05-5.62-0.05c-13.25,0-24.03,10.78-24.03,24.03s10.78,24.03,24.03,24.03 c1.58,0,3.17,0.01,4.74,0.04l0.46,0c13,0,23.78-10.58,24.02-23.59C2188.59,977.02,2178.01,966.04,2164.76,965.8z"></path> <path class="st2" d="M2399.5,1165.91c-2.81,5.77-3.21,12.29-1.11,18.36c0.91,2.64,1.79,5.35,2.63,8.06 c3.12,10.15,12.35,16.97,22.96,16.97c2.39,0,4.77-0.36,7.07-1.07c6.13-1.89,11.17-6.05,14.17-11.72s3.62-12.17,1.73-18.31 c-0.98-3.19-2.03-6.41-3.13-9.59c-3.34-9.69-12.47-16.2-22.71-16.2c-2.66,0-5.3,0.44-7.84,1.32 C2407.2,1155.81,2402.31,1160.14,2399.5,1165.91z"></path> <path class="st2" d="M2365.98,1080.95c-10.58,7.98-12.69,23.08-4.71,33.65c1.69,2.24,3.37,4.55,5,6.86 c4.49,6.39,11.85,10.21,19.67,10.21c4.96,0,9.73-1.51,13.8-4.38c10.84-7.62,13.46-22.64,5.83-33.48c-1.93-2.74-3.93-5.49-5.95-8.16 c-4.58-6.08-11.58-9.56-19.2-9.56C2375.18,1076.1,2370.18,1077.78,2365.98,1080.95z"></path> <path class="st2" d="M2304.47,1059.68c2.32,1.63,4.63,3.32,6.87,5.01c4.2,3.17,9.2,4.85,14.45,4.85c7.62,0,14.62-3.48,19.2-9.56 c7.98-10.58,5.86-25.68-4.71-33.65c-2.69-2.03-5.44-4.03-8.17-5.95c-4.07-2.86-8.84-4.38-13.8-4.38c-7.83,0-15.18,3.82-19.67,10.21 C2291.01,1037.04,2293.63,1052.06,2304.47,1059.68z"></path> <path class="st2" d="M2233.58,1024.93c2.69,0.83,5.41,1.71,8.09,2.64c2.54,0.88,5.17,1.32,7.83,1.32c10.25,0,19.37-6.51,22.72-16.2 c4.32-12.53-2.36-26.23-14.88-30.55c-3.17-1.09-6.42-2.15-9.63-3.14c-2.3-0.71-4.68-1.07-7.07-1.07 c-10.61,0-19.84,6.82-22.96,16.98c-1.89,6.13-1.27,12.64,1.74,18.31C2222.41,1018.88,2227.44,1023.04,2233.58,1024.93z"></path> <path class="st2" d="M2436.11,1237.6l-0.42,0c-6.42,0.12-12.41,2.73-16.86,7.35c-4.46,4.62-6.84,10.7-6.73,17.12 c0.03,1.58,0.04,3.16,0.04,4.74c0,13.25,10.78,24.03,24.03,24.03s24.03-10.78,24.03-24.03c0-1.88-0.02-3.75-0.05-5.62 C2459.92,1248.19,2449.13,1237.6,2436.11,1237.6z"></path> <path class="st2" d="M2176.16,1157.61c-1.59-0.98-3.2-1.95-4.82-2.9c-3.7-2.18-7.91-3.33-12.18-3.33 c-8.48,0-16.42,4.53-20.72,11.83c-3.26,5.53-4.17,12-2.57,18.21c1.6,6.21,5.53,11.43,11.06,14.69c1.37,0.81,2.72,1.62,4.07,2.45 c3.79,2.33,8.13,3.56,12.56,3.56c8.43,0,16.09-4.28,20.49-11.45C2190.99,1179.37,2187.45,1164.55,2176.16,1157.61z"></path> <path class="st2" d="M2318.59,1390.2c-0.27-3.37-0.6-6.75-0.98-10.06c-1.39-12.15-11.64-21.31-23.84-21.31 c-0.91,0-1.84,0.05-2.75,0.16c-6.38,0.73-12.09,3.9-16.08,8.92c-3.99,5.02-5.79,11.3-5.07,17.68c0.32,2.78,0.59,5.63,0.82,8.46 c1,12.4,11.5,22.11,23.93,22.11c0.65,0,1.31-0.03,1.95-0.08c6.4-0.51,12.21-3.49,16.37-8.38 C2317.09,1402.81,2319.1,1396.59,2318.59,1390.2z"></path> <path class="st2" d="M2270.7,1275.48c-3.43,0-6.76,0.72-9.9,2.15c-5.85,2.65-10.31,7.42-12.57,13.42 c-2.26,6.01-2.05,12.54,0.6,18.38c1.16,2.56,2.29,5.18,3.38,7.79c3.73,9.03,12.45,14.86,22.22,14.86c3.15,0,6.23-0.62,9.17-1.83 c5.93-2.45,10.55-7.07,13.02-12.99c2.46-5.93,2.47-12.46,0.02-18.39c-1.27-3.07-2.62-6.19-4.02-9.28 C2288.72,1281.02,2280.12,1275.48,2270.7,1275.48z"></path> <path class="st2" d="M2311.38,1483.91c0.78-3.26,1.51-6.58,2.18-9.87c1.28-6.29,0.03-12.7-3.51-18.05 c-3.54-5.35-8.96-9-15.25-10.28c-1.59-0.32-3.2-0.49-4.81-0.49c-11.36,0-21.26,8.09-23.53,19.25c-0.57,2.78-1.18,5.57-1.83,8.29 c-3.08,12.89,4.91,25.87,17.79,28.95c1.84,0.44,3.72,0.66,5.6,0.66C2299.18,1502.36,2308.78,1494.77,2311.38,1483.91z"></path> <path class="st2" d="M2211.03,1249.87c4.57,5.36,11.24,8.44,18.29,8.44c5.7,0,11.24-2.04,15.58-5.75 c4.88-4.16,7.85-9.98,8.36-16.38c0.51-6.4-1.5-12.61-5.67-17.5c-2.19-2.57-4.44-5.12-6.7-7.59c-4.54-4.97-11.01-7.83-17.75-7.83 c-6.01,0-11.76,2.23-16.2,6.28c-9.79,8.93-10.48,24.16-1.54,33.95C2207.3,1245.56,2209.19,1247.71,2211.03,1249.87z"></path> <path class="st2" d="M2271.51,1529.35c-3.6-2.04-7.68-3.11-11.8-3.11c-8.66,0-16.69,4.68-20.94,12.21 c-0.78,1.37-1.56,2.74-2.37,4.1c-6.73,11.41-2.92,26.17,8.49,32.9c3.7,2.18,7.91,3.33,12.18,3.33c8.48,0,16.42-4.53,20.72-11.83 c0.96-1.62,1.89-3.25,2.82-4.88C2287.13,1550.55,2283.04,1535.86,2271.51,1529.35z"></path> </g> </svg> 